<svg width="1440" height="1979" viewBox="0 0 1440 1979" fill="none" xmlns="http://www.w3.org/2000/svg">
<path d="M-12.5815 433.703C-60.0582 376.446 -83.7966 347.818 -78.2429 324.505C-76.5182 317.265 -73.1336 310.525 -68.3565 304.818C-52.9736 286.441 -15.8344 288.385 58.4441 292.272L409.303 310.636C461.812 313.384 488.067 314.758 501.403 329.813C505.626 334.58 508.859 340.141 510.912 346.171C517.394 365.21 505.595 388.704 481.998 435.692L355.399 687.786C331.801 734.774 320.003 758.268 300.861 764.439C294.798 766.393 288.408 767.121 282.061 766.581C262.022 764.874 245.24 744.636 211.678 704.16L-12.5815 433.703Z" fill="#FED253" fill-opacity="0.8"/>
<path d="M406.631 891.794C397.822 874.652 393.417 866.081 392.538 856.912C392.249 853.89 392.247 850.848 392.532 847.825C393.397 838.655 397.789 830.078 406.573 812.923L567.259 499.109C596.847 441.324 611.642 412.431 633.621 407.514C640.499 405.975 647.632 405.97 654.512 407.498C676.499 412.383 691.336 441.254 721.01 498.995L882.16 812.571C890.969 829.713 895.374 838.284 896.253 847.453C896.542 850.475 896.544 853.517 896.259 856.539C895.394 865.71 891.002 874.287 882.218 891.442L721.532 1205.26C691.944 1263.04 677.149 1291.93 655.17 1296.85C648.292 1298.39 641.159 1298.4 634.279 1296.87C612.292 1291.98 597.455 1263.11 567.781 1205.37L406.631 891.794Z" fill="#DB7D26" fill-opacity="0.8"/>
<path d="M807.259 416.706C791.283 386.222 811.634 349.326 845.941 346.578L1234.18 315.475C1272.31 312.42 1298.52 353.012 1280.04 386.505L1072.6 762.582C1054.13 796.075 1005.81 795.56 988.058 761.681L807.259 416.706Z" fill="#FA5959" fill-opacity="0.92"/>
<path d="M1559.94 871.231C1587.1 933.012 1547.85 1003.66 1481.05 1013.24L1238.85 1047.97C1187.2 1055.38 1138.29 1022.61 1125.48 972.029L1109.64 909.411C1102.91 882.847 1107.16 854.695 1121.42 831.298L1264.24 596.994C1307.15 526.587 1411.54 533.556 1444.72 609.042L1559.94 871.231Z" fill="#FED253" fill-opacity="0.8"/>
<path d="M-279.926 1459.24C-299.068 1450.39 -308.639 1445.97 -316.51 1439.31C-319.119 1437.1 -321.575 1434.71 -323.863 1432.18C-330.766 1424.51 -335.48 1415.08 -344.909 1396.22L-548.878 988.171C-567.084 951.749 -576.187 933.538 -575.768 914.71C-575.631 908.55 -574.745 902.43 -573.131 896.485C-568.195 878.311 -554.303 863.427 -526.519 833.661L-331.543 624.771C-320.333 612.761 -314.728 606.756 -308.073 602.131C-305.863 600.595 -303.572 599.177 -301.211 597.884C-294.103 593.99 -286.229 591.652 -270.48 586.975L-102.359 537.051C-66.0605 526.272 -47.911 520.882 -30.4748 523.851C-24.7582 524.824 -19.1718 526.449 -13.8245 528.693C2.48485 535.536 14.9145 549.818 39.7737 578.38L236.194 804.062C242.537 811.351 245.709 814.995 249.298 818.195C250.493 819.261 251.721 820.288 252.981 821.276C256.765 824.244 260.912 826.722 269.206 831.679L302.059 851.313C316.596 860.001 323.865 864.345 329.93 870.081C331.944 871.985 333.853 873.999 335.647 876.112C341.05 882.475 344.998 889.966 352.896 904.948L451.5 1092L535.972 1230.28C557.591 1265.67 568.401 1283.37 569.456 1302.47C569.802 1308.72 569.375 1314.98 568.185 1321.12C564.547 1339.9 551.436 1355.96 525.213 1388.09L340.223 1614.76C328.447 1629.19 322.559 1636.4 315.253 1641.91C312.829 1643.74 310.298 1645.43 307.672 1646.95C299.76 1651.56 290.828 1654.19 272.966 1659.46L249.375 1666.43C227.7 1672.82 216.863 1676.02 205.845 1676.01C202.196 1676.01 198.553 1675.74 194.942 1675.22C184.039 1673.62 173.782 1668.89 153.267 1659.41L-279.926 1459.24Z" fill="#FA5959" fill-opacity="0.8"/>
<path d="M1393.76 1545.15C1414.75 1554.1 1439.02 1550.15 1456.09 1534.99L1628.91 1381.52C1649.76 1363 1654.8 1332.41 1640.98 1308.18L1540.18 1131.41C1527.98 1110 1503.76 1098.44 1479.44 1102.4L1234.29 1142.34C1209.98 1146.3 1190.68 1164.96 1185.9 1189.13L1146.43 1388.76C1141.02 1416.12 1155.51 1443.53 1181.16 1454.47L1393.76 1545.15Z" fill="#DB7D26" fill-opacity="0.9"/>
<path d="M1117.1 1218.58C1122.63 1245 1109.52 1271.81 1085.28 1283.67L834.715 1406.24C784.265 1430.92 731.126 1377.82 755.773 1327.35L949.116 931.469C973.774 880.98 1048.37 890.275 1059.88 945.271L1117.1 1218.58Z" fill="#FA5959" fill-opacity="0.92"/>
<path d="M978.267 1507.56C994.739 1486.88 1022.96 1479.68 1047.33 1489.94L1435.8 1653.6C1464.14 1665.54 1478.56 1697.25 1468.92 1726.45L1425.74 1857.36C1417.58 1882.08 1394.19 1898.53 1368.17 1897.85L800.128 1883.01C751.448 1881.73 725.181 1825.36 755.517 1787.27L978.267 1507.56Z" fill="#FED253" fill-opacity="0.9"/>
<path d="M606.802 1436.71C622.443 1419.56 646.685 1413.18 668.745 1420.4L848.658 1479.27C888.863 1492.43 902.566 1542.38 874.702 1574.21L718.596 1752.54C703.225 1770.1 678.95 1776.95 656.668 1770.02L469.616 1711.8C428.375 1698.96 414.452 1647.62 443.557 1615.7L606.802 1436.71Z" fill="#DB7D26" fill-opacity="0.9"/>
<path d="M331.405 1727.66C341.933 1725.26 352.915 1725.81 363.155 1729.23L534.74 1786.51C584.128 1803 586.357 1872.03 538.134 1891.66V1891.66C531.416 1894.4 524.231 1895.81 516.978 1895.81H142.517C128.039 1895.81 114.066 1890.48 103.259 1880.85L40.4031 1824.82C15.1703 1802.33 13.9554 1763.28 37.7413 1739.26L55.9908 1720.83C75.5432 1701.09 106.221 1697.67 129.645 1712.61L179.227 1744.25C192.519 1752.73 208.653 1755.53 224.028 1752.04L331.405 1727.66Z" fill="#FED253" fill-opacity="0.9"/>
</svg>
