<?xml version="1.0" standalone="no"?>
<svg xmlns="http://www.w3.org/2000/svg" viewBox="0 0 87.36 36" width="87.36" height="36"><g fill="#0B365E" color="#0B365E" transform="translate(0 5.320754716981131) scale(0.5283019)"><svg width="53.0" height="48.0" x="0.0" y="0.0" viewBox="0 0 53 48"><path fill="currentColor" fill-rule="evenodd" d="M14.18 0L0 8.432v16.864l14.18 8.435L24 27.846v11.72L38.181 48l14.181-8.434V22.704l-14.181-8.433-9.818 5.883V8.432L14.18 0zM4.364 22.814V10.915l9.817-5.84L24 10.915v11.853l-9.819 5.885-9.817-5.839zm23.999 14.27V25.23l9.818-5.884 9.818 5.837v11.9L38.18 42.92l-9.818-5.837z"></path></svg></g><path fill="#000000" fill-rule="nonzero" d="M7.85 16.97L0.10 16.97Q0 16.97 0 16.85L0 16.85L0.02 0.38Q0.02 0.26 0.14 0.26L0.14 0.26L2.81 0.26Q2.93 0.26 2.93 0.38L2.93 0.38L2.90 14.02L7.85 14.02Q7.97 14.02 7.97 14.14L7.97 14.14L7.97 16.85Q7.97 16.97 7.85 16.97L7.85 16.97ZM13.61 17.21L13.61 17.21Q12.29 17.21 11.22 16.55Q10.15 15.89 9.53 14.78Q8.90 13.68 8.90 12.31L8.90 12.31L8.93 4.82Q8.93 3.50 9.54 2.41Q10.15 1.32 11.22 0.66Q12.29 0 13.61 0L13.61 0Q14.93 0 15.98 0.65Q17.04 1.30 17.66 2.39Q18.29 3.48 18.29 4.82L18.29 4.82L18.29 5.93Q18.29 6.02 18.19 6.02L18.19 6.02L15.50 6.02Q15.41 6.02 15.41 5.93L15.41 5.93L15.41 4.82Q15.41 4.03 14.89 3.46Q14.38 2.88 13.61 2.88L13.61 2.88Q12.74 2.88 12.29 3.47Q11.83 4.06 11.83 4.82L11.83 4.82L11.83 12.31Q11.83 13.20 12.35 13.75Q12.86 14.30 13.61 14.30L13.61 14.30Q14.38 14.30 14.89 13.69Q15.41 13.08 15.41 12.31L15.41 12.31L15.41 11.21Q15.41 11.11 15.50 11.11L15.50 11.11L18.22 11.11Q18.31 11.11 18.31 11.21L18.31 11.21L18.31 12.31Q18.31 13.68 17.68 14.78Q17.04 15.89 15.98 16.55Q14.93 17.21 13.61 17.21ZM22.87 16.97L20.16 16.97Q20.06 16.97 20.06 16.85L20.06 16.85L20.09 0.36Q20.09 0.26 20.21 0.26L20.21 0.26L22.87 0.26Q22.99 0.26 22.99 0.36L22.99 0.36L22.97 6.89L26.57 6.89L26.57 0.36Q26.57 0.26 26.66 0.26L26.66 0.26L29.33 0.26Q29.45 0.26 29.45 0.36L29.45 0.36L29.50 16.85Q29.50 16.97 29.38 16.97L29.38 16.97L26.69 16.97Q26.57 16.97 26.57 16.85L26.57 16.85L26.57 9.79L22.97 9.79L22.97 16.85Q22.97 16.97 22.87 16.97L22.87 16.97ZM35.54 17.21L35.54 17.21Q34.25 17.21 33.18 16.55Q32.11 15.89 31.48 14.80Q30.84 13.70 30.84 12.38L30.84 12.38L30.84 11.28Q30.84 11.16 30.96 11.16L30.96 11.16L33.65 11.16Q33.74 11.16 33.74 11.28L33.74 11.28L33.74 12.38Q33.74 13.18 34.27 13.74Q34.80 14.30 35.54 14.30L35.54 14.30Q36.29 14.30 36.82 13.73Q37.34 13.15 37.34 12.38L37.34 12.38Q37.34 11.50 36.19 10.85L36.19 10.85Q35.81 10.63 34.99 10.18Q34.18 9.72 33.46 9.31L33.46 9.31Q32.14 8.54 31.50 7.38Q30.86 6.22 30.86 4.75L30.86 4.75Q30.86 3.41 31.51 2.34Q32.16 1.27 33.23 0.65Q34.30 0.02 35.54 0.02L35.54 0.02Q36.82 0.02 37.88 0.66Q38.95 1.30 39.59 2.36Q40.22 3.43 40.22 4.75L40.22 4.75L40.22 6.72Q40.22 6.82 40.13 6.82L40.13 6.82L37.44 6.82Q37.34 6.82 37.34 6.72L37.34 6.72L37.32 4.75Q37.32 3.91 36.79 3.38Q36.26 2.86 35.54 2.86L35.54 2.86Q34.80 2.86 34.27 3.42Q33.74 3.98 33.74 4.75L33.74 4.75Q33.74 5.54 34.08 6.07Q34.42 6.60 35.30 7.08L35.30 7.08Q35.42 7.15 35.77 7.33Q36.12 7.51 36.53 7.74Q36.94 7.97 37.26 8.14Q37.58 8.30 37.66 8.35L37.66 8.35Q38.86 9.02 39.55 10.00Q40.25 10.97 40.25 12.38L40.25 12.38Q40.25 13.75 39.61 14.84Q38.98 15.94 37.91 16.57Q36.84 17.21 35.54 17.21ZM46.34 16.94L42.05 16.97Q41.93 16.97 41.93 16.85L41.93 16.85L41.98 0.36Q41.98 0.26 42.07 0.26L42.07 0.26L46.56 0.24Q47.88 0.22 48.97 0.86Q50.06 1.51 50.71 2.60Q51.36 3.70 51.36 5.02L51.36 5.02L51.36 11.90Q51.36 13.30 50.69 14.44Q50.02 15.58 48.89 16.25Q47.76 16.92 46.34 16.94L46.34 16.94ZM44.88 3.14L44.86 14.02L46.34 14.02Q47.23 14.02 47.84 13.39Q48.46 12.77 48.46 11.90L48.46 11.90L48.46 4.99Q48.46 4.22 47.89 3.66Q47.33 3.10 46.56 3.12L46.56 3.12L44.88 3.14Z" transform="translate(36, 9.516)"></path></svg>