<svg id="visual" viewBox="0 0 540 1500" width="540" height="1500" xmlns="http://www.w3.org/2000/svg" xmlns:xlink="http://www.w3.org/1999/xlink" version="1.1"><path d="M0 385L45 408.5C90 432 180 479 270 493.5C360 508 450 490 495 481L540 472L540 1501L495 1501C450 1501 360 1501 270 1501C180 1501 90 1501 45 1501L0 1501Z" fill="#2684db"></path><path d="M0 810L45 805.7C90 801.3 180 792.7 270 783.8C360 775 450 766 495 761.5L540 757L540 1501L495 1501C450 1501 360 1501 270 1501C180 1501 90 1501 45 1501L0 1501Z" fill="#1562e6"></path><path d="M0 1080L45 1090.7C90 1101.3 180 1122.7 270 1112.8C360 1103 450 1062 495 1041.5L540 1021L540 1501L495 1501C450 1501 360 1501 270 1501C180 1501 90 1501 45 1501L0 1501Z" fill="#6026db"></path></svg>