<svg id="visual" viewBox="0 0 900 1000" width="900" height="1000" xmlns="http://www.w3.org/2000/svg" xmlns:xlink="http://www.w3.org/1999/xlink" version="1.1"><path d="M0 198L11.5 192.2C23 186.3 46 174.7 69 170.3C92 166 115 169 138.2 174.8C161.3 180.7 184.7 189.3 207.8 192.8C231 196.3 254 194.7 277 188.5C300 182.3 323 171.7 346 171.7C369 171.7 392 182.3 415.2 184.3C438.3 186.3 461.7 179.7 484.8 174.3C508 169 531 165 554 165C577 165 600 169 623 167C646 165 669 157 692.2 155.2C715.3 153.3 738.7 157.7 761.8 157.7C785 157.7 808 153.3 831 151C854 148.7 877 148.3 888.5 148.2L900 148L900 1001L888.5 1001C877 1001 854 1001 831 1001C808 1001 785 1001 761.8 1001C738.7 1001 715.3 1001 692.2 1001C669 1001 646 1001 623 1001C600 1001 577 1001 554 1001C531 1001 508 1001 484.8 1001C461.7 1001 438.3 1001 415.2 1001C392 1001 369 1001 346 1001C323 1001 300 1001 277 1001C254 1001 231 1001 207.8 1001C184.7 1001 161.3 1001 138.2 1001C115 1001 92 1001 69 1001C46 1001 23 1001 11.5 1001L0 1001Z" fill="#2684db"></path><path d="M0 337L11.5 340.7C23 344.3 46 351.7 69 354.8C92 358 115 357 138.2 351.5C161.3 346 184.7 336 207.8 329.8C231 323.7 254 321.3 277 324.7C300 328 323 337 346 333.7C369 330.3 392 314.7 415.2 309.2C438.3 303.7 461.7 308.3 484.8 318.2C508 328 531 343 554 341.7C577 340.3 600 322.7 623 319.8C646 317 669 329 692.2 335.8C715.3 342.7 738.7 344.3 761.8 345.5C785 346.7 808 347.3 831 341.5C854 335.7 877 323.3 888.5 317.2L900 311L900 1001L888.5 1001C877 1001 854 1001 831 1001C808 1001 785 1001 761.8 1001C738.7 1001 715.3 1001 692.2 1001C669 1001 646 1001 623 1001C600 1001 577 1001 554 1001C531 1001 508 1001 484.8 1001C461.7 1001 438.3 1001 415.2 1001C392 1001 369 1001 346 1001C323 1001 300 1001 277 1001C254 1001 231 1001 207.8 1001C184.7 1001 161.3 1001 138.2 1001C115 1001 92 1001 69 1001C46 1001 23 1001 11.5 1001L0 1001Z" fill="#0074e3"></path><path d="M0 518L11.5 516.8C23 515.7 46 513.3 69 506.5C92 499.7 115 488.3 138.2 486.7C161.3 485 184.7 493 207.8 499.5C231 506 254 511 277 509.3C300 507.7 323 499.3 346 501.8C369 504.3 392 517.7 415.2 524.5C438.3 531.3 461.7 531.7 484.8 522.7C508 513.7 531 495.3 554 490.3C577 485.3 600 493.7 623 497.5C646 501.3 669 500.7 692.2 495.8C715.3 491 738.7 482 761.8 476.3C785 470.7 808 468.3 831 477.8C854 487.3 877 508.7 888.5 519.3L900 530L900 1001L888.5 1001C877 1001 854 1001 831 1001C808 1001 785 1001 761.8 1001C738.7 1001 715.3 1001 692.2 1001C669 1001 646 1001 623 1001C600 1001 577 1001 554 1001C531 1001 508 1001 484.8 1001C461.7 1001 438.3 1001 415.2 1001C392 1001 369 1001 346 1001C323 1001 300 1001 277 1001C254 1001 231 1001 207.8 1001C184.7 1001 161.3 1001 138.2 1001C115 1001 92 1001 69 1001C46 1001 23 1001 11.5 1001L0 1001Z" fill="#1562e6"></path><path d="M0 690L11.5 683C23 676 46 662 69 654.8C92 647.7 115 647.3 138.2 645.3C161.3 643.3 184.7 639.7 207.8 646.5C231 653.3 254 670.7 277 678.7C300 686.7 323 685.3 346 680.7C369 676 392 668 415.2 661.3C438.3 654.7 461.7 649.3 484.8 655.3C508 661.3 531 678.7 554 678.2C577 677.7 600 659.3 623 654.2C646 649 669 657 692.2 662.2C715.3 667.3 738.7 669.7 761.8 664.3C785 659 808 646 831 648.5C854 651 877 669 888.5 678L900 687L900 1001L888.5 1001C877 1001 854 1001 831 1001C808 1001 785 1001 761.8 1001C738.7 1001 715.3 1001 692.2 1001C669 1001 646 1001 623 1001C600 1001 577 1001 554 1001C531 1001 508 1001 484.8 1001C461.7 1001 438.3 1001 415.2 1001C392 1001 369 1001 346 1001C323 1001 300 1001 277 1001C254 1001 231 1001 207.8 1001C184.7 1001 161.3 1001 138.2 1001C115 1001 92 1001 69 1001C46 1001 23 1001 11.5 1001L0 1001Z" fill="#3e4be4"></path><path d="M0 841L11.5 839.5C23 838 46 835 69 828.3C92 821.7 115 811.3 138.2 806C161.3 800.7 184.7 800.3 207.8 809C231 817.7 254 835.3 277 842C300 848.7 323 844.3 346 839.5C369 834.7 392 829.3 415.2 830.2C438.3 831 461.7 838 484.8 840C508 842 531 839 554 839.7C577 840.3 600 844.7 623 842.7C646 840.7 669 832.3 692.2 834.2C715.3 836 738.7 848 761.8 850.7C785 853.3 808 846.7 831 838.8C854 831 877 822 888.5 817.5L900 813L900 1001L888.5 1001C877 1001 854 1001 831 1001C808 1001 785 1001 761.8 1001C738.7 1001 715.3 1001 692.2 1001C669 1001 646 1001 623 1001C600 1001 577 1001 554 1001C531 1001 508 1001 484.8 1001C461.7 1001 438.3 1001 415.2 1001C392 1001 369 1001 346 1001C323 1001 300 1001 277 1001C254 1001 231 1001 207.8 1001C184.7 1001 161.3 1001 138.2 1001C115 1001 92 1001 69 1001C46 1001 23 1001 11.5 1001L0 1001Z" fill="#7139e9e8"></path></svg>