<svg width="470" height="380" viewBox="0 0 470 380" fill="none" xmlns="http://www.w3.org/2000/svg">
<path d="M391.008 358.809L390.195 369.347L373.649 364.078L380.429 356.175L391.008 358.809Z" fill="#FEB8B8"/>
<path d="M451.228 355.384L450.412 365.658L441.19 366.976L435.765 361.97L442.003 352.222L451.228 355.384Z" fill="#FEB8B8"/>
<path d="M458.009 224.186C458.009 224.186 465.333 232.616 456.11 245.525C446.887 258.434 435.766 271.08 435.766 271.08L415.148 309.017C415.148 309.017 404.569 346.164 402.128 347.217C399.686 348.271 398.33 344.056 399.686 348.534C401.042 353.012 400.229 352.75 399.144 353.014C398.059 353.278 395.075 352.751 396.16 354.595C397.245 356.439 398.059 356.439 395.889 356.439C393.719 356.439 392.905 355.122 392.905 356.966C392.905 358.81 391.006 363.025 391.006 363.025C391.006 363.025 377.715 359.337 377.172 357.756C376.63 356.175 380.698 355.385 379.885 353.805C379.071 352.224 378.8 352.224 378.8 349.853C378.8 347.483 380.428 346.955 380.428 346.955C380.428 346.955 381.784 346.429 381.241 345.374C380.699 344.32 378.529 344.848 381.241 343.53C383.954 342.213 395.076 301.904 395.076 301.904C395.076 301.904 395.076 281.879 398.603 275.295C402.129 268.71 399.416 221.814 407.828 221.287C416.24 220.76 458.009 224.186 458.009 224.186Z" fill="#2F2E41"/>
<path d="M455.296 239.202L453.668 280.037C453.668 280.037 461.806 319.554 459.093 331.673C456.381 343.791 458.28 342.211 456.652 344.319C455.024 346.426 453.668 345.372 455.024 347.217C456.38 349.061 457.192 349.588 455.024 351.696C452.857 353.805 451.769 358.81 451.769 358.81L437.935 357.493C437.935 357.493 441.462 351.434 440.103 350.116C438.744 348.799 435.22 350.906 437.935 348.011C440.651 345.116 442.276 346.43 440.648 345.113C439.02 343.796 436.579 344.323 438.749 342.215C440.919 340.108 443.362 340.11 441.19 339.317C439.019 338.524 436.578 339.317 437.664 337.736C438.751 336.155 440.106 334.312 440.106 334.312L436.851 310.338C436.851 310.338 433.053 302.434 434.138 299.009C435.223 295.585 429.525 267.395 429.525 267.395L455.296 239.202Z" fill="#2F2E41"/>
<path d="M449.33 360.653C449.33 360.653 452.042 358.018 452.856 359.599C453.67 361.18 459.636 375.406 456.111 376.46C452.586 377.513 447.431 378.565 444.718 377.777C442.006 376.989 436.309 373.297 429.528 373.297C422.747 373.297 417.051 370.399 417.051 369.345C417.051 368.292 415.966 361.968 421.119 361.968C426.273 361.968 435.767 356.173 435.767 356.173C435.767 356.173 437.934 351.957 439.022 352.221C440.11 352.485 439.293 360.915 439.293 360.915C439.293 360.915 445.531 366.712 449.33 360.653Z" fill="#2F2E41"/>
<path d="M389.11 364.077C389.11 364.077 391.551 358.281 393.993 359.597C396.434 360.913 394.806 377.247 394.806 377.247C394.806 377.247 392.639 380.672 386.398 379.882C380.156 379.091 363.612 377.247 359.814 378.037C356.016 378.828 345.709 374.349 348.422 368.289C348.422 368.289 349.778 364.865 356.288 365.128C362.799 365.392 374.734 357.751 374.734 357.751C374.734 357.751 376.633 352.482 377.175 353.009C377.717 353.536 378.26 362.757 378.26 362.757C378.26 362.757 385.313 367.239 389.11 364.077Z" fill="#2F2E41"/>
<path d="M424.645 121.177C433.334 121.177 440.377 114.336 440.377 105.897C440.377 97.4575 433.334 90.6162 424.645 90.6162C415.955 90.6162 408.912 97.4575 408.912 105.897C408.912 114.336 415.955 121.177 424.645 121.177Z" fill="#FEB8B8"/>
<path d="M436.851 106.95C436.851 106.95 445.26 123.284 448.243 124.865C451.227 126.446 427.9 136.194 427.9 136.194C427.9 136.194 424.102 120.123 419.491 116.699C414.879 113.274 436.851 106.95 436.851 106.95Z" fill="#FEB8B8"/>
<path d="M412.709 240.519L411.625 250.53C411.625 250.53 399.961 246.579 403.758 239.202L412.709 240.519Z" fill="#FEB8B8"/>
<path d="M408.1 225.503C416.237 233.931 459.365 226.818 459.365 226.818L458.824 220.759L464.25 215.23L462.623 189.41C462.623 189.41 467.502 177.293 468.315 158.851C468.365 157.718 468.294 156.582 468.105 155.463C465.309 138.943 437.612 128.303 436.851 128.552C436.468 128.675 432.391 130.738 428.137 132.909C423.252 135.401 418.137 138.037 418.137 138.037C411.626 140.412 412.712 178.349 410.54 181.773C408.368 185.197 410.54 197.048 410.54 197.048L408.1 208.376C408.1 208.376 399.96 217.075 408.1 225.503Z" fill="#F0F0F0"/>
<path opacity="0.1" d="M434.389 141.868C434.389 141.868 441.984 163.997 440.356 179.014C438.729 194.031 421.097 236.973 421.097 236.973L415.133 240.135V247.511L410.935 236.469L422.478 213.029C422.478 213.029 408.075 132.12 434.389 141.868Z" fill="black"/>
<path opacity="0.1" d="M427.265 135.228C435.135 131.013 447.071 142.082 459.548 153.934C464.029 158.188 466.62 157.76 468.107 155.462C465.31 138.942 437.613 128.302 436.852 128.552C436.47 128.675 432.393 130.738 428.138 132.909L427.265 135.228Z" fill="black"/>
<path d="M427.269 133.191L430.524 124.497C430.524 124.497 452.767 114.223 467.414 124.497L469.856 139.25C469.856 139.25 472.023 163.751 459.548 151.896C447.073 140.041 435.135 128.976 427.269 133.191Z" fill="#F0F0F0"/>
<path d="M433.596 138.301C433.596 138.301 441.192 160.431 439.564 175.447C437.936 190.464 420.305 233.407 420.305 233.407L414.337 236.57V243.947L401.86 240.522L404.572 231.829C404.572 231.829 400.232 226.56 403.216 224.979C406.201 223.398 405.658 214.704 405.658 214.704C405.658 214.704 407.284 128.553 433.596 138.301Z" fill="#F0F0F0"/>
<path d="M438.67 112.293C438.413 111.112 438.448 109.842 437.866 108.776C436.991 107.177 434.982 106.509 433.126 106.351C430.755 106.151 428.367 106.549 425.994 106.391C423.62 106.234 421.085 105.355 419.904 103.35C419.432 102.55 419.2 101.608 418.575 100.915C417.274 99.4714 414.902 99.6948 413.033 100.313C411.163 100.932 409.213 101.835 407.302 101.352C405.695 96.9847 407.674 91.9473 411.097 88.7136C414.52 85.48 419.136 83.7398 423.72 82.4428C429.767 80.7318 436.572 79.7209 442.132 82.595C450.194 86.7624 453.039 97.7933 452.295 106.015C452.014 109.123 451.554 112.642 448.967 114.74C445.176 117.815 439.815 117.551 438.67 112.293Z" fill="#2F2E41"/>
<path d="M339.957 0.187286H0.14563V211.557H339.957V0.187286Z" fill="#E6E6E6"/>
<path d="M331.351 26.6981H10.9736V199.052H331.351V26.6981Z" fill="white"/>
<path d="M339.811 0H0V14.0211H339.811V0Z" fill="#0B365D"/>
<path d="M10.7285 9.76728C12.2063 9.76728 13.4044 8.60372 13.4044 7.16839C13.4044 5.73307 12.2063 4.5695 10.7285 4.5695C9.25064 4.5695 8.05261 5.73307 8.05261 7.16839C8.05261 8.60372 9.25064 9.76728 10.7285 9.76728Z" fill="white"/>
<path d="M20.8846 9.76728C22.3625 9.76728 23.5605 8.60372 23.5605 7.16839C23.5605 5.73307 22.3625 4.5695 20.8846 4.5695C19.4068 4.5695 18.2087 5.73307 18.2087 7.16839C18.2087 8.60372 19.4068 9.76728 20.8846 9.76728Z" fill="white"/>
<path d="M31.0407 9.76728C32.5185 9.76728 33.7166 8.60372 33.7166 7.16839C33.7166 5.73307 32.5185 4.5695 31.0407 4.5695C29.5628 4.5695 28.3648 5.73307 28.3648 7.16839C28.3648 8.60372 29.5628 9.76728 31.0407 9.76728Z" fill="white"/>
<path d="M67.0246 50.8557L45.8327 71.181L67.0246 91.5057L71.7929 86.8747L55.7682 71.3089L71.9268 55.6152L67.0246 50.8557Z" fill="#0B365D"/>
<path d="M84.3886 50.8557L105.58 71.181L84.3886 91.5057L79.6204 86.8747L95.6462 71.3094L79.4865 55.6152L84.3886 50.8557Z" fill="#0B365D"/>
<path d="M152.935 55.9563C151.202 55.9563 149.797 56.9246 149.797 58.1185C149.797 59.3125 151.202 60.2808 152.935 60.2808H300.88C302.614 60.2808 304.018 59.3125 304.018 58.1185C304.018 56.9246 302.614 55.9563 300.88 55.9563H152.935Z" fill="#E6E6E6"/>
<path d="M299.409 174.42H50.5293C47.9851 174.42 45.9233 172.993 45.9205 171.235V128.572C45.9233 126.814 47.9851 125.388 50.5293 125.388H299.409C301.953 125.388 304.015 126.814 304.018 128.572V171.235C304.016 172.993 301.953 174.418 299.409 174.42ZM50.5293 126.661C49.0026 126.661 47.7656 127.517 47.7639 128.571V171.234C47.7639 172.288 49.0026 173.143 50.5293 173.144H299.409C300.936 173.144 302.173 172.288 302.175 171.234V128.572C302.175 127.518 300.936 126.663 299.409 126.662L50.5293 126.661Z" fill="#E6E6E6"/>
<path d="M76.1582 160.7C82.3077 160.7 87.2929 155.858 87.2929 149.886C87.2929 143.913 82.3077 139.071 76.1582 139.071C70.0086 139.071 65.0234 143.913 65.0234 149.886C65.0234 155.858 70.0086 160.7 76.1582 160.7Z" fill="#E6E6E6"/>
<path d="M107.563 141.237C106.972 141.236 106.406 141.463 105.988 141.868C105.57 142.273 105.334 142.823 105.334 143.396C105.333 143.969 105.567 144.52 105.984 144.926C106.401 145.332 106.967 145.56 107.557 145.561H212.52C213.11 145.561 213.677 145.333 214.094 144.928C214.512 144.522 214.746 143.972 214.746 143.399C214.746 142.825 214.512 142.275 214.094 141.87C213.677 141.464 213.11 141.237 212.52 141.237H107.563Z" fill="#0B365D"/>
<path d="M107.563 154.211C107.27 154.21 106.981 154.266 106.711 154.374C106.44 154.482 106.195 154.641 105.988 154.842C105.57 155.247 105.334 155.796 105.334 156.37C105.333 156.943 105.567 157.494 105.984 157.9C106.401 158.306 106.967 158.534 107.557 158.535H152.725C153.316 158.536 153.882 158.309 154.3 157.904C154.718 157.499 154.954 156.949 154.954 156.376C154.955 155.802 154.721 155.252 154.304 154.846C153.888 154.44 153.322 154.211 152.731 154.211H107.563Z" fill="#0B365D"/>
<path d="M151.855 68.9103C151.296 68.9541 150.774 69.2009 150.393 69.6015C150.012 70.0022 149.801 70.5274 149.801 71.0725C149.801 71.6177 150.012 72.1428 150.393 72.5435C150.774 72.9441 151.296 73.1909 151.855 73.2347H248.814C249.374 73.1909 249.896 72.9441 250.276 72.5435C250.657 72.1428 250.868 71.6177 250.868 71.0725C250.868 70.5274 250.657 70.0022 250.276 69.6015C249.896 69.2009 249.374 68.9541 248.814 68.9103H151.855Z" fill="#E6E6E6"/>
<path d="M152.493 81.8642C151.004 81.8642 149.797 82.8325 149.797 84.0265C149.797 85.2204 151.004 86.1887 152.493 86.1887H279.59C281.079 86.1887 282.286 85.2204 282.286 84.0265C282.286 82.8325 281.079 81.8642 279.59 81.8642H152.493Z" fill="#E6E6E6"/>
</svg>
