<svg width="623" height="399" viewBox="0 0 623 399" fill="none" xmlns="http://www.w3.org/2000/svg">
<g clip-path="url(#clip0)">
<path opacity="0.1" d="M299.227 399C458.662 399 587.91 391.675 587.91 382.64C587.91 373.604 458.662 366.279 299.227 366.279C139.792 366.279 10.5441 373.604 10.5441 382.64C10.5441 391.675 139.792 399 299.227 399Z" fill="#6C63FF"/>
<g opacity="0.2">
<path opacity="0.2" d="M537.484 383.373C537.219 383.869 536.91 384.341 536.561 384.782C533.487 382.64 530.362 380.541 527.185 378.486C527.249 378.354 527.318 378.217 527.393 378.085C528.131 376.676 529.236 375.488 530.595 374.644C532.35 373.589 534.33 373.335 535.931 374.19C537.532 375.045 538.471 376.797 538.567 378.824C538.623 380.409 538.249 381.979 537.484 383.373Z" fill="#3F3D56"/>
<path opacity="0.2" d="M541.78 375.426C543.713 371.817 543.021 367.709 540.234 366.249C537.447 364.789 533.622 366.531 531.689 370.139C529.756 373.748 530.449 377.857 533.235 379.316C536.022 380.776 539.847 379.034 541.78 375.426Z" fill="#3F3D56"/>
<path opacity="0.2" d="M546.054 367.438C547.987 363.83 547.295 359.721 544.508 358.261C541.722 356.801 537.896 358.543 535.963 362.152C534.031 365.76 534.723 369.869 537.51 371.329C540.296 372.789 544.122 371.047 546.054 367.438Z" fill="#3F3D56"/>
<path opacity="0.2" d="M550.336 359.448C552.269 355.84 551.576 351.731 548.79 350.271C546.003 348.812 542.178 350.553 540.245 354.162C538.312 357.77 539.005 361.879 541.791 363.339C544.578 364.799 548.403 363.057 550.336 359.448Z" fill="#3F3D56"/>
<path opacity="0.2" d="M554.613 351.456C556.546 347.848 555.853 343.739 553.067 342.279C550.28 340.819 546.455 342.561 544.522 346.17C542.589 349.778 543.282 353.887 546.068 355.347C548.855 356.807 552.68 355.065 554.613 351.456Z" fill="#3F3D56"/>
<path opacity="0.2" d="M559.922 284.208C559.699 282.987 559.56 281.753 559.506 280.513L573.913 285.305L559.506 277.917C559.716 274.224 560.687 270.612 562.36 267.304C564.032 263.996 566.372 261.061 569.234 258.68L583.166 278.661L572.329 256.458C575.513 254.491 579.073 253.193 582.786 252.645C586.5 252.097 590.287 252.31 593.914 253.272C597.54 254.234 600.928 255.924 603.866 258.237C606.803 260.549 609.228 263.435 610.99 266.714C612.751 269.994 613.812 273.597 614.105 277.299C614.398 281.001 613.918 284.723 612.694 288.234C611.47 291.744 609.528 294.968 606.991 297.705C604.453 300.442 601.373 302.632 597.942 304.141C598.295 306.055 598.438 308.002 598.369 309.946L576.411 309.777L598.032 313.298C597.302 317.741 595.464 321.934 592.684 325.498C589.904 329.062 586.27 331.885 582.11 333.711C583.027 338.709 582.504 343.861 580.601 348.578C578.697 353.296 575.49 357.388 571.346 360.388C567.201 363.387 562.287 365.172 557.165 365.54C552.042 365.907 546.919 364.841 542.381 362.464C537.842 360.087 534.072 356.495 531.5 352.098C528.929 347.701 527.66 342.678 527.84 337.602C528.019 332.525 529.639 327.602 532.515 323.393C535.39 319.185 539.405 315.862 544.101 313.804C543.01 307.836 543.978 301.678 546.849 296.319C549.72 290.96 554.328 286.71 559.933 284.25L559.922 284.208Z" fill="#6C63FF"/>
<path opacity="0.1" d="M595.189 321.615C592.328 326.985 587.715 331.24 582.1 333.69C583.017 338.688 582.495 343.84 580.591 348.557C578.688 353.275 575.48 357.367 571.336 360.366C567.191 363.366 562.277 365.151 557.155 365.519C552.033 365.886 546.909 364.82 542.371 362.443C537.833 360.066 534.062 356.474 531.49 352.077C528.919 347.68 527.65 342.657 527.83 337.581C528.009 332.504 529.629 327.581 532.505 323.372C535.381 319.164 539.396 315.841 544.091 313.783C543.029 308.015 596.63 318.934 595.189 321.615Z" fill="black"/>
</g>
<g opacity="0.2">
<path opacity="0.2" d="M520.339 223.742C520.007 224.59 519.605 225.409 519.138 226.191C513.763 223.355 508.318 220.601 502.804 217.927C502.879 217.7 502.964 217.462 503.055 217.235C503.95 214.83 505.479 212.705 507.484 211.082C510.083 209.023 513.215 208.248 516.022 209.298C518.829 210.348 520.622 212.992 521.182 216.217C521.587 218.755 521.295 221.354 520.339 223.742Z" fill="#3F3D56"/>
<path opacity="0.2" d="M525.613 210.083C527.992 203.902 526.051 197.435 521.278 195.638C516.505 193.841 510.707 197.394 508.328 203.575C505.949 209.756 507.89 216.223 512.663 218.02C517.436 219.817 523.234 216.264 525.613 210.083Z" fill="#3F3D56"/>
<path opacity="0.2" d="M530.881 196.407C533.26 190.226 531.319 183.759 526.546 181.962C521.773 180.165 515.975 183.719 513.596 189.9C511.217 196.081 513.158 202.548 517.931 204.345C522.704 206.142 528.502 202.588 530.881 196.407Z" fill="#3F3D56"/>
<path opacity="0.2" d="M536.141 182.725C538.52 176.544 536.579 170.077 531.806 168.28C527.033 166.483 521.235 170.036 518.856 176.217C516.477 182.398 518.418 188.865 523.191 190.662C527.964 192.459 533.762 188.906 536.141 182.725Z" fill="#3F3D56"/>
<path opacity="0.2" d="M541.409 169.055C543.788 162.874 541.847 156.406 537.074 154.609C532.301 152.812 526.503 156.366 524.124 162.547C521.745 168.728 523.686 175.195 528.459 176.992C533.233 178.789 539.03 175.235 541.409 169.055Z" fill="#3F3D56"/>
<path opacity="0.2" d="M536.411 60.006C535.803 58.0737 535.331 56.1022 534.997 54.1056L559.127 58.9663L534.495 49.8994C534.091 43.9456 534.92 37.9729 536.93 32.3467C538.94 26.7205 542.09 21.5592 546.187 17.1785L572.632 46.4479L550.755 12.9195C555.476 9.14809 560.931 6.37664 566.78 4.77717C572.63 3.17769 578.749 2.78432 584.759 3.62147C590.769 4.45862 596.541 6.50842 601.716 9.64366C606.891 12.7789 611.36 16.9327 614.844 21.8472C618.329 26.7617 620.755 32.332 621.972 38.2125C623.189 44.0931 623.171 50.1582 621.92 56.0316C620.668 61.905 618.209 67.4613 614.696 72.3557C611.182 77.25 606.689 81.378 601.495 84.4833C602.443 87.4895 603.062 90.5876 603.342 93.7243L568.033 97.7775L603.48 99.1761C603.203 106.46 601.094 113.56 597.344 119.834C593.593 126.108 588.321 131.359 582.003 135.111C584.477 142.957 584.67 151.332 582.559 159.281C580.448 167.23 576.119 174.431 570.066 180.062C564.014 185.693 556.481 189.526 548.33 191.123C540.179 192.72 531.738 192.017 523.972 189.095C516.206 186.172 509.427 181.148 504.411 174.595C499.396 168.043 496.345 160.227 495.607 152.042C494.87 143.856 496.476 135.63 500.242 128.304C504.007 120.978 509.781 114.847 516.902 110.613C513.939 101.235 514.25 91.1442 517.784 81.962C521.319 72.7799 527.871 65.0396 536.39 59.9849L536.411 60.006Z" fill="#6C63FF"/>
<path opacity="0.1" d="M600.604 113.151C597.083 122.335 590.528 130.073 582.003 135.111C584.477 142.957 584.67 151.332 582.559 159.281C580.448 167.23 576.119 174.431 570.066 180.062C564.014 185.693 556.481 189.526 548.33 191.123C540.179 192.72 531.738 192.017 523.972 189.095C516.206 186.172 509.427 181.148 504.411 174.595C499.396 168.043 496.345 160.227 495.607 152.042C494.87 143.856 496.476 135.63 500.242 128.304C504.007 120.978 509.781 114.847 516.902 110.613C514.058 101.577 602.376 108.56 600.604 113.151Z" fill="black"/>
</g>
<g opacity="0.2">
<path opacity="0.2" d="M95.1853 269.241C95.4554 270.288 95.8124 271.312 96.2525 272.301C103.012 269.74 109.847 267.277 116.759 264.913C116.7 264.633 116.642 264.343 116.567 264.058C115.871 261.087 114.384 258.353 112.261 256.142C109.497 253.334 105.916 251.962 102.474 252.796C99.0326 253.629 96.498 256.49 95.3507 260.184C94.4758 263.134 94.4187 266.262 95.1853 269.241Z" fill="#3F3D56"/>
<path opacity="0.2" d="M105.138 263.571C111.038 262.146 114.293 254.798 112.407 247.159C110.521 239.519 104.209 234.481 98.3086 235.906C92.4081 237.331 89.1535 244.679 91.0393 252.318C92.9251 259.958 99.2373 264.996 105.138 263.571Z" fill="#3F3D56"/>
<path opacity="0.2" d="M100.963 246.672C106.864 245.247 110.118 237.899 108.232 230.259C106.346 222.62 100.034 217.582 94.1338 219.006C88.2333 220.431 84.9787 227.779 86.8645 235.419C88.7503 243.058 95.0624 248.096 100.963 246.672Z" fill="#3F3D56"/>
<path opacity="0.2" d="M96.7934 229.766C102.694 228.341 105.949 220.993 104.063 213.353C102.177 205.714 95.8648 200.676 89.9642 202.1C84.0637 203.525 80.8091 210.873 82.6949 218.513C84.5808 226.152 90.8929 231.19 96.7934 229.766Z" fill="#3F3D56"/>
<path opacity="0.2" d="M92.6174 212.856C98.5179 211.431 101.772 204.083 99.8867 196.443C98.0008 188.804 91.6887 183.766 85.7882 185.191C79.8876 186.615 76.633 193.963 78.5189 201.603C80.4047 209.242 86.7168 214.281 92.6174 212.856Z" fill="#3F3D56"/>
<path opacity="0.2" d="M100.628 73.6912C101.636 71.501 102.488 69.2437 103.178 66.9359L73.9847 69.1419L104.4 62.0383C105.769 55.0687 105.684 47.8961 104.15 40.9601C102.617 34.0241 99.6681 27.4709 95.4838 21.7019L59.9027 52.4384L90.7293 16.0655C85.7234 10.9097 79.6982 6.82783 73.0288 4.07389C66.3594 1.31996 59.1883 -0.0471545 51.9617 0.0575971C44.7351 0.162349 37.6076 1.73673 31.0226 4.68279C24.4376 7.62884 18.5361 11.8836 13.685 17.1822C8.83396 22.4809 5.13723 28.7102 2.82481 35.4825C0.51239 42.2549 -0.366257 49.4254 0.243534 56.548C0.853325 63.6706 2.93851 70.5929 6.36936 76.8842C9.80021 83.1756 14.5033 88.7014 20.1861 93.1179C18.6187 96.5285 17.4255 100.095 16.627 103.758L57.6882 113.685L15.6504 110.164C14.8928 118.797 16.3222 127.481 19.8094 135.43C23.2966 143.379 28.7317 150.344 35.6235 155.694C31.5304 164.592 30.0515 174.45 31.3557 184.141C32.66 193.831 36.6948 202.963 42.9989 210.492C49.303 218.022 57.622 223.645 67.0049 226.719C76.3878 229.793 86.4559 230.194 96.0582 227.875C105.661 225.557 114.41 220.614 121.305 213.61C128.201 206.606 132.965 197.824 135.052 188.269C137.14 178.713 136.467 168.77 133.11 159.575C129.753 150.38 123.848 142.305 116.07 136.273C120.961 125.636 122.094 113.682 119.287 102.332C116.481 90.9822 109.898 80.8949 100.596 73.6912H100.628Z" fill="#6C63FF"/>
<path opacity="0.1" d="M16.9475 127.042C19.7315 138.401 26.3125 148.497 35.6238 155.694C31.5307 164.592 30.0518 174.45 31.356 184.14C32.6603 193.83 36.6951 202.962 42.9992 210.492C49.3033 218.021 57.6224 223.644 67.0052 226.718C76.3881 229.792 86.4562 230.193 96.0586 227.875C105.661 225.557 114.41 220.613 121.306 213.609C128.201 206.605 132.965 197.824 135.053 188.268C137.14 178.713 136.467 168.769 133.11 159.575C129.754 150.38 123.849 142.305 116.071 136.272C120.809 126.007 15.5547 121.389 16.9475 127.042Z" fill="black"/>
</g>
<path d="M563.652 60.0112H46.7229C46.117 60.0119 45.5171 60.1307 44.9577 60.3608C44.3983 60.591 43.8902 60.9279 43.4625 61.3524C43.0348 61.7768 42.6959 62.2805 42.4652 62.8346C42.2344 63.3887 42.1164 63.9824 42.1178 64.5816V377.478C42.1157 378.686 42.3542 379.883 42.8197 381C43.2851 382.116 43.9685 383.132 44.8306 383.987C45.6928 384.843 46.7169 385.522 47.8446 385.986C48.9722 386.451 50.1812 386.691 51.4026 386.693H558.972C560.193 386.691 561.403 386.451 562.53 385.986C563.658 385.522 564.682 384.843 565.544 383.987C566.406 383.132 567.09 382.116 567.555 381C568.021 379.883 568.259 378.686 568.257 377.478V64.5816C568.258 63.3718 567.774 62.2109 566.911 61.3539C566.047 60.497 564.875 60.014 563.652 60.0112Z" fill="url(#paint0_linear)"/>
<path d="M566.165 79.4379V375.636C566.164 378.05 565.194 380.365 563.468 382.072C561.742 383.779 559.401 384.739 556.96 384.74H53.505C51.0624 384.74 48.7197 383.78 46.9925 382.072C45.2653 380.364 44.2949 378.047 44.2949 375.631V79.4379H566.165Z" fill="white"/>
<path d="M566.165 66.2757V79.4379H44.2949V66.2757C44.2949 65.0775 44.7762 63.9284 45.6328 63.0812C46.4894 62.234 47.6512 61.7581 48.8626 61.7581H561.597C562.809 61.7581 563.971 62.234 564.827 63.0812C565.684 63.9284 566.165 65.0775 566.165 66.2757Z" fill="#EDEDF4"/>
<path opacity="0.8" d="M52.5659 72.5771C53.7447 72.5771 54.7003 71.632 54.7003 70.4661C54.7003 69.3002 53.7447 68.355 52.5659 68.355C51.3871 68.355 50.4315 69.3002 50.4315 70.4661C50.4315 71.632 51.3871 72.5771 52.5659 72.5771Z" fill="#FA5959"/>
<path opacity="0.8" d="M58.4356 72.5771C59.6144 72.5771 60.57 71.632 60.57 70.4661C60.57 69.3002 59.6144 68.355 58.4356 68.355C57.2568 68.355 56.3012 69.3002 56.3012 70.4661C56.3012 71.632 57.2568 72.5771 58.4356 72.5771Z" fill="#FED253"/>
<path opacity="0.8" d="M64.3053 72.5771C65.4841 72.5771 66.4397 71.632 66.4397 70.4661C66.4397 69.3002 65.4841 68.355 64.3053 68.355C63.1265 68.355 62.1709 69.3002 62.1709 70.4661C62.1709 71.632 63.1265 72.5771 64.3053 72.5771Z" fill="#8CCF4D"/>
<path d="M335.603 54.2112V52.1002H332.401V54.2112H335.603Z" fill="url(#paint1_linear)"/>
<path d="M214.474 105.398H164.314V110.676H214.474V105.398Z" fill="#EDEDF4"/>
<path d="M446.06 120.703H164.314V125.981H446.06V120.703Z" fill="#EDEDF4"/>
<path d="M446.06 136.008H164.314V141.286H446.06V136.008Z" fill="#EDEDF4"/>
<path d="M446.06 151.313H164.314V156.591H446.06V151.313Z" fill="#EDEDF4"/>
<path d="M446.06 166.618H164.314V171.896H446.06V166.618Z" fill="#EDEDF4"/>
<path d="M392.075 195.814H218.118V328.808H392.075V195.814Z" fill="#EDEDF4"/>
<path d="M335.619 237.016C335.395 237.016 335.171 237.047 334.941 237.052C335.017 236.745 335.042 236.428 335.016 236.113C334.951 234.782 334.586 233.482 333.949 232.308C333.557 231.616 333.114 230.953 332.626 230.324C331.174 228.339 329.829 226.313 328.234 224.439C327.542 223.711 326.971 222.879 326.542 221.974C326.381 221.486 326.189 221.008 325.966 220.544C325.658 220.07 325.223 219.689 324.71 219.442C324.197 219.195 323.626 219.093 323.058 219.146C321.916 219.279 320.866 219.828 320.112 220.687C319.664 221.162 319.296 221.895 319.67 222.434C320.043 222.972 320.854 223.041 320.902 223.632C320.902 223.948 320.902 224.466 320.577 224.566C319.999 224.717 319.448 224.955 318.944 225.273C318.694 225.436 318.487 225.655 318.338 225.912C318.189 226.168 318.102 226.455 318.085 226.751C319.008 226.888 319.782 226.123 320.619 225.695C321.683 225.247 322.877 225.203 323.97 225.574C324.391 225.684 324.783 225.88 325.123 226.149C325.422 226.44 325.674 226.774 325.87 227.141C326.898 228.611 327.533 230.314 327.716 232.092L328.186 235.058C327.491 235.112 326.8 235.204 326.116 235.332C324.273 235.601 322.393 235.475 320.603 234.963C318.736 234.435 316.868 233.474 314.942 233.907C314.04 234.102 313.218 234.598 312.306 234.741C311.593 234.809 310.873 234.772 310.171 234.63L308.704 234.398C308.656 234.277 308.619 234.15 308.581 234.023C308.278 232.965 308.137 231.867 308.165 230.767C309.122 230.716 310.051 230.434 310.873 229.947C311.694 229.459 312.382 228.779 312.877 227.968C313.372 227.156 313.658 226.237 313.711 225.291C313.764 224.344 313.582 223.4 313.181 222.539C313.972 222.1 314.627 221.456 315.075 220.676L314.702 220.608L315.054 220.08C314.971 220.03 314.901 219.961 314.849 219.88C314.797 219.799 314.765 219.707 314.756 219.611C314.746 219.516 314.758 219.419 314.793 219.329C314.827 219.239 314.881 219.158 314.952 219.093C314.641 218.933 314.294 218.857 313.944 218.871C314.056 218.665 313.875 218.412 313.656 218.344C313.428 218.298 313.194 218.283 312.962 218.301C312.622 218.275 312.287 218.199 311.97 218.074C309.691 217.299 307.22 216.618 304.899 217.267C303.876 217.583 302.92 218.08 302.076 218.734C301.255 219.191 300.641 219.941 300.361 220.831C300.081 221.721 300.156 222.684 300.572 223.521C300.924 224.385 301.176 225.287 301.324 226.207C301.357 227.067 301.258 227.926 301.031 228.756C301.539 228.909 302.058 229.024 302.583 229.099C302.287 230.233 301.762 231.295 301.041 232.224C300.711 232.634 300.354 233.024 299.974 233.39H299.91C298.852 233.586 297.783 233.716 296.708 233.78C295.577 233.78 294.467 233.358 293.341 233.437C292.674 233.512 292.017 233.659 291.383 233.875C288.454 234.725 285.411 235.127 282.36 235.068L281.991 235.105L282.333 232.952C282.516 231.174 283.151 229.471 284.179 228.001C284.375 227.635 284.627 227.3 284.926 227.009C285.268 226.74 285.662 226.545 286.084 226.434C287.176 226.064 288.368 226.107 289.43 226.555C290.268 226.962 291.031 227.727 291.97 227.611C291.951 227.315 291.863 227.028 291.713 226.772C291.563 226.516 291.355 226.297 291.105 226.133C290.601 225.816 290.05 225.577 289.473 225.426C289.163 225.326 289.12 224.809 289.147 224.492C289.195 223.901 290.044 223.774 290.38 223.289C290.716 222.803 290.38 222.022 289.937 221.542C289.182 220.686 288.132 220.138 286.991 220.006C286.424 219.953 285.853 220.055 285.341 220.302C284.829 220.549 284.396 220.93 284.088 221.405C283.862 221.868 283.667 222.345 283.507 222.835C283.078 223.739 282.507 224.571 281.815 225.299C280.214 227.173 278.875 229.199 277.424 231.184C276.938 231.813 276.496 232.475 276.1 233.163C275.466 234.34 275.102 235.641 275.033 236.973C275.007 237.29 275.032 237.609 275.108 237.918C275.072 237.992 275.052 238.073 275.049 238.156C275.066 238.3 275.111 238.439 275.182 238.566C275.254 238.693 275.35 238.805 275.465 238.894C276.282 239.707 277.141 240.546 278.24 240.895C278.924 241.055 279.617 241.173 280.316 241.248C282.002 241.549 283.555 242.515 285.268 242.51C286.447 242.51 287.61 242.045 288.774 242.209C290.374 242.425 291.527 243.713 292.509 244.964C293.343 245.94 293.969 247.073 294.35 248.294C294.729 249.766 294.494 251.423 295.289 252.722C295.49 252.987 295.645 253.283 295.748 253.598C295.764 254.096 295.652 254.59 295.422 255.033C294.75 257.076 296.223 259.255 296.068 261.366C295.993 262.395 295.534 263.366 295.486 264.396C295.406 265.72 295.951 267.203 295.204 268.306C295.657 268.074 296.116 267.868 296.586 267.684C294.344 274.18 292.317 280.877 292.471 287.707C292.589 292.134 293.539 297.011 290.967 300.647C290.601 301.081 290.311 301.571 290.108 302.099C289.905 302.811 290.108 303.566 290.241 304.294C290.716 307.461 288.987 310.58 288.87 313.794C288.856 314.784 288.92 315.774 289.062 316.754L289.691 322.106C289.057 322.242 288.466 322.533 287.973 322.95C287.311 323.478 286.73 324.343 287.039 325.135C287.29 325.774 288.027 326.08 288.704 326.238C289.399 326.315 290.063 326.564 290.636 326.961C290.819 327.162 291.013 327.352 291.217 327.531C291.612 327.743 292.064 327.826 292.509 327.769C293.325 327.737 294.11 327.668 294.942 327.558C295.115 327.55 295.283 327.498 295.428 327.404C295.525 327.298 295.6 327.173 295.646 327.036C295.693 326.9 295.711 326.756 295.7 326.613C295.76 325.809 295.726 325.002 295.598 324.206C295.566 324.053 295.524 323.905 295.481 323.752C295.761 323.074 295.96 322.366 296.073 321.641C296.239 320.586 296.265 319.483 296.335 318.401C296.495 315.646 296.868 312.912 297.295 310.178L297.829 306.664C297.994 305.508 298.165 304.352 298.363 303.196C299.352 296.936 300.891 290.773 302.962 284.778C303.416 283.495 304.19 281.991 305.561 281.954L306.377 283.537C307.445 285.522 308.096 287.722 308.907 289.807C309.974 292.546 309.611 295.744 311.041 298.32C311.276 298.747 311.575 299.154 311.751 299.602C312.004 300.293 312.151 301.017 312.188 301.75L313.133 311.25C313.56 315.519 314.019 319.905 315.956 323.742C316.077 323.989 316.22 324.226 316.383 324.449C316.323 325.088 316.314 325.73 316.356 326.37C316.326 326.483 316.323 326.602 316.348 326.716C316.372 326.83 316.423 326.938 316.496 327.029C316.57 327.121 316.664 327.194 316.771 327.244C316.878 327.293 316.995 327.318 317.114 327.315C317.919 327.42 318.714 327.489 319.541 327.521C319.986 327.578 320.438 327.495 320.833 327.283C321.041 327.107 321.238 326.916 321.42 326.713C321.99 326.316 322.653 326.067 323.346 325.99C324.024 325.837 324.76 325.531 325.011 324.887C325.326 324.095 324.739 323.235 324.077 322.702C323.541 322.239 322.882 321.937 322.178 321.831C321.888 321.848 321.597 321.825 321.313 321.763C321.379 321.415 321.401 321.06 321.377 320.707C321.309 320.292 321.291 319.87 321.324 319.451C321.433 319.028 321.579 318.614 321.761 318.216C322.375 316.348 321.068 314.448 320.609 312.538C319.995 309.994 320.908 307.329 320.742 304.716C320.486 300.616 317.594 296.768 318.362 292.731C318.976 289.501 318.453 286.181 317.871 282.946L315.737 270.908C315.587 269.931 315.327 268.973 314.963 268.053C315.359 267.985 315.749 267.883 316.126 267.747C316.66 266.459 316.569 265.039 316.409 263.657C316.249 262.274 315.876 260.923 315.689 259.551C315.527 258.447 315.434 257.335 315.411 256.221C315.353 255.121 315.432 254.019 315.646 252.938C315.892 251.989 316.226 251.065 316.644 250.178C317.677 247.615 318.926 245.144 320.379 242.789C322.572 242.62 324.696 242.436 326.884 242.261C327.408 242.238 327.93 242.169 328.442 242.056C329.095 241.833 329.759 241.645 330.432 241.491C330.683 241.478 330.931 241.43 331.169 241.348C331.649 241.132 331.943 240.525 332.471 240.504C332.669 240.53 332.87 240.53 333.068 240.504C333.303 240.43 333.421 240.177 333.602 239.976C333.933 239.612 334.472 239.538 334.904 239.301C335.275 239.063 335.549 238.704 335.68 238.286C335.811 237.869 335.789 237.419 335.619 237.016Z" fill="url(#paint2_linear)"/>
<path d="M307.861 231.242C311.103 231.242 313.73 228.643 313.73 225.437C313.73 222.23 311.103 219.631 307.861 219.631C304.619 219.631 301.991 222.23 301.991 225.437C301.991 228.643 304.619 231.242 307.861 231.242Z" fill="#A1616A"/>
<path d="M301.084 232.662C300.484 233.391 299.814 234.061 299.083 234.662C302.531 236.695 306.63 237.363 310.556 236.53C310.411 236.134 309.888 236.076 309.52 235.876C309.042 235.54 308.716 235.032 308.613 234.461C308.218 233.07 308.102 231.616 308.272 230.181C308.344 229.833 308.344 229.474 308.272 229.126C308.067 228.603 307.673 228.174 307.167 227.922C306.336 227.41 305.438 227.01 304.499 226.735C303.528 226.45 302.973 226.318 302.936 227.437C302.896 229.329 302.248 231.159 301.084 232.662Z" fill="#A1616A"/>
<path d="M328.319 236.314L327.722 232.567C327.625 231.813 327.466 231.068 327.247 230.34C326.889 229.394 326.431 228.488 325.881 227.637C325.685 227.272 325.433 226.939 325.134 226.65C324.794 226.382 324.401 226.186 323.981 226.075C322.89 225.706 321.7 225.751 320.641 226.202C319.803 226.603 319.04 227.363 318.106 227.231C318.124 226.936 318.211 226.649 318.361 226.393C318.511 226.137 318.72 225.92 318.971 225.759C319.464 225.442 320.004 225.203 320.571 225.051C320.876 224.956 320.924 224.439 320.897 224.123C320.849 223.537 320 223.41 319.664 222.93C319.328 222.45 319.664 221.668 320.102 221.188C320.855 220.335 321.904 219.791 323.042 219.663C323.608 219.607 324.179 219.707 324.691 219.952C325.204 220.197 325.638 220.577 325.945 221.051C326.172 221.512 326.366 221.988 326.526 222.476C326.955 223.376 327.524 224.204 328.213 224.93C329.813 226.793 331.153 228.809 332.599 230.783C333.083 231.412 333.525 232.071 333.922 232.757C334.559 233.926 334.923 235.22 334.989 236.546C335.037 236.954 334.976 237.367 334.813 237.744C334.648 238.019 334.414 238.247 334.133 238.406C333.853 238.565 333.536 238.649 333.213 238.652C332.557 238.636 331.908 238.507 331.297 238.272L328.97 237.496C328.687 237.434 328.428 237.293 328.223 237.09C328.139 236.972 328.102 236.827 328.12 236.683C328.137 236.54 328.209 236.408 328.319 236.314Z" fill="#A1616A"/>
<path d="M281.815 237.142L282.408 233.395C282.509 232.642 282.669 231.897 282.888 231.168C283.244 230.221 283.702 229.315 284.254 228.466C284.445 228.101 284.695 227.769 284.996 227.484C285.333 227.213 285.727 227.016 286.148 226.909C287.24 226.539 288.432 226.582 289.494 227.03C290.332 227.432 291.095 228.191 292.029 228.06C292.01 227.765 291.923 227.478 291.773 227.222C291.622 226.967 291.414 226.749 291.164 226.587C290.671 226.271 290.131 226.033 289.563 225.88C289.259 225.785 289.211 225.268 289.238 224.951C289.286 224.365 290.129 224.239 290.47 223.758C290.812 223.278 290.47 222.497 290.028 222.022C289.275 221.167 288.226 220.621 287.087 220.492C286.521 220.436 285.951 220.536 285.438 220.781C284.926 221.026 284.492 221.406 284.185 221.88C283.96 222.341 283.767 222.817 283.608 223.304C283.178 224.204 282.609 225.032 281.922 225.759C280.321 227.622 278.982 229.638 277.53 231.611C277.048 232.24 276.607 232.899 276.212 233.585C275.579 234.755 275.214 236.049 275.145 237.374C275.1 237.784 275.162 238.199 275.327 238.578C275.495 238.855 275.734 239.084 276.019 239.242C276.305 239.401 276.627 239.483 276.954 239.48C277.609 239.467 278.256 239.338 278.864 239.1L281.196 238.346C281.478 238.285 281.736 238.143 281.938 237.939C282.026 237.816 282.062 237.665 282.039 237.516C282.016 237.368 281.936 237.234 281.815 237.142Z" fill="#A1616A"/>
<path d="M324.077 322.681C324.739 323.209 325.32 324.069 325.011 324.855C324.755 325.494 324.024 325.795 323.346 325.953C322.654 326.031 321.992 326.278 321.42 326.671C321.239 326.865 321.044 327.047 320.838 327.215C320.445 327.428 319.992 327.512 319.547 327.452C318.736 327.42 317.946 327.352 317.119 327.246C316.946 327.239 316.778 327.186 316.633 327.093C316.536 326.988 316.461 326.863 316.415 326.728C316.369 326.593 316.353 326.449 316.366 326.307C316.302 325.507 316.334 324.703 316.463 323.911C316.597 323.115 317.011 322.392 317.631 321.868C318.25 321.393 320.128 319.984 320.833 320.887C321.02 321.129 320.945 321.462 321.206 321.662C321.468 321.863 321.879 321.752 322.178 321.789C322.884 321.9 323.543 322.21 324.077 322.681Z" fill="#3F3D56"/>
<path d="M288.021 322.955C287.36 323.483 286.778 324.343 287.087 325.13C287.338 325.768 288.069 326.075 288.747 326.228C289.439 326.304 290.102 326.551 290.673 326.945C290.855 327.148 291.052 327.339 291.26 327.515C291.653 327.726 292.103 327.809 292.546 327.753C293.357 327.721 294.147 327.652 294.974 327.542C295.147 327.535 295.315 327.482 295.46 327.389C295.558 327.284 295.634 327.16 295.681 327.024C295.727 326.889 295.745 326.745 295.732 326.602C295.792 325.804 295.758 325.002 295.63 324.212C295.499 323.413 295.085 322.687 294.462 322.164C293.848 321.689 291.97 320.28 291.26 321.182C291.073 321.425 291.148 321.763 290.881 321.958C290.615 322.153 290.214 322.048 289.91 322.085C289.21 322.194 288.556 322.495 288.021 322.955Z" fill="#3F3D56"/>
<path d="M297.093 266.644C294.686 273.505 292.349 280.603 292.53 287.881C292.648 292.288 293.597 297.143 291.031 300.758C290.665 301.189 290.374 301.678 290.172 302.204C289.969 302.911 290.172 303.661 290.3 304.389C290.78 307.556 289.056 310.648 288.934 313.846C288.92 314.831 288.985 315.816 289.126 316.791L289.793 322.428C290.017 324.359 292.536 325.151 294.478 325.42C295.391 324.342 295.965 323.023 296.127 321.625C296.292 320.57 296.319 319.478 296.383 318.406C296.548 315.662 296.948 312.939 297.343 310.221L297.877 306.722C298.048 305.571 298.213 304.421 298.411 303.27C299.407 297.058 300.948 290.943 303.016 284.994C303.469 283.711 304.243 282.218 305.609 282.181L306.425 283.733C307.493 285.701 308.138 287.897 308.949 289.971C310.017 292.699 309.648 295.876 311.084 298.446C311.319 298.869 311.617 299.275 311.788 299.718C312.038 300.397 312.186 301.108 312.226 301.829L313.17 311.266C313.597 315.514 314.051 319.879 315.988 323.694C316.179 324.15 316.486 324.55 316.879 324.855C317.669 325.383 318.773 325.114 319.547 324.565C320.159 324.12 320.648 323.53 320.971 322.85C321.293 322.17 321.438 321.42 321.393 320.67C321.33 320.256 321.312 319.837 321.34 319.419C321.453 318.999 321.599 318.588 321.777 318.19C322.396 316.332 321.089 314.443 320.625 312.543C320.011 310.01 320.924 307.36 320.763 304.758C320.507 300.674 317.621 296.842 318.384 292.826C318.997 289.612 318.474 286.308 317.898 283.089L315.737 271.109C315.395 269.219 314.883 267.087 313.181 266.164C312.205 265.732 311.135 265.55 310.07 265.636C305.657 265.636 301.441 266.243 297.093 266.644Z" fill="#3F3D56"/>
<path d="M335.619 237.443C334.065 237.598 332.501 237.277 331.137 236.525C330.619 236.184 330.066 235.898 329.488 235.67C328.421 235.327 327.247 235.628 326.126 235.791C324.287 236.055 322.411 235.929 320.625 235.422C318.757 234.894 316.889 233.939 314.968 234.366C314.067 234.562 313.25 235.052 312.338 235.195C311.625 235.266 310.905 235.229 310.203 235.084L304.12 234.145C302.747 233.873 301.345 233.774 299.947 233.849C298.889 234.044 297.82 234.176 296.746 234.245C295.62 234.245 294.51 233.823 293.384 233.897C292.719 233.972 292.064 234.118 291.431 234.335C288.508 235.179 285.473 235.579 282.429 235.522C280.002 235.679 277.662 236.482 275.657 237.844C275.519 237.92 275.4 238.025 275.307 238.152C275.215 238.278 275.152 238.424 275.124 238.578C275.142 238.721 275.188 238.859 275.26 238.984C275.333 239.109 275.43 239.219 275.545 239.306C276.356 240.119 277.216 240.953 278.315 241.301C278.997 241.46 279.688 241.576 280.385 241.649C282.066 241.955 283.619 242.911 285.326 242.911C286.506 242.911 287.664 242.446 288.827 242.61C290.428 242.826 291.575 244.103 292.562 245.349C293.392 246.322 294.018 247.449 294.403 248.663C294.777 250.13 294.542 251.777 295.337 253.07C295.536 253.334 295.691 253.628 295.796 253.941C295.813 254.437 295.701 254.93 295.47 255.371C294.798 257.403 296.271 259.551 296.116 261.704C296.041 262.723 295.582 263.694 295.534 264.712C295.46 266.037 295.999 267.509 295.252 268.607C298.134 267.171 301.337 266.479 304.563 266.596C305.099 266.609 305.634 266.659 306.164 266.744C307.193 266.952 308.206 267.23 309.195 267.578C311.425 268.28 313.88 268.781 316.078 267.979C316.612 266.697 316.521 265.282 316.356 263.91C316.19 262.538 315.849 261.187 315.641 259.82C315.479 258.722 315.386 257.615 315.363 256.506C315.305 255.411 315.384 254.314 315.598 253.239C315.843 252.295 316.177 251.376 316.596 250.495C317.626 247.931 318.875 245.459 320.331 243.106C322.519 242.932 324.637 242.747 326.825 242.578C327.347 242.55 327.867 242.481 328.378 242.372C329.03 242.152 329.692 241.965 330.363 241.813C330.614 241.799 330.862 241.749 331.099 241.665C331.58 241.449 331.879 240.847 332.402 240.831C332.6 240.855 332.801 240.855 332.999 240.831C333.234 240.763 333.346 240.504 333.533 240.304C333.864 239.939 334.403 239.865 334.835 239.633C335.198 239.411 335.473 239.073 335.616 238.674C335.759 238.276 335.76 237.842 335.619 237.443Z" fill="#6C63FF"/>
<path d="M308.88 227.532C309.05 227.664 309.258 227.742 309.474 227.756C309.69 227.769 309.906 227.717 310.091 227.606C310.324 227.389 310.481 227.104 310.539 226.793C310.731 226.133 310.886 225.464 311.004 224.787C311.035 224.493 311.125 224.207 311.271 223.948C311.66 223.357 312.503 223.326 313.159 223.056C313.971 222.623 314.642 221.971 315.096 221.178L314.728 221.104L315.075 220.576C314.993 220.527 314.923 220.459 314.872 220.378C314.821 220.298 314.789 220.206 314.78 220.112C314.77 220.017 314.784 219.921 314.818 219.832C314.853 219.743 314.908 219.664 314.979 219.6C314.668 219.435 314.318 219.357 313.965 219.373C314.077 219.172 313.896 218.919 313.677 218.845C313.451 218.798 313.219 218.786 312.989 218.808C312.648 218.78 312.313 218.702 311.996 218.576C309.723 217.805 307.258 217.124 304.942 217.774C303.919 218.086 302.962 218.582 302.119 219.235C301.304 219.689 300.694 220.433 300.416 221.316C300.137 222.199 300.21 223.154 300.62 223.985C300.969 224.843 301.22 225.737 301.367 226.65C301.401 227.508 301.304 228.366 301.079 229.194C301.711 229.395 302.364 229.521 303.026 229.569C303.693 229.619 304.355 229.432 304.894 229.041C305.428 228.587 305.726 227.885 306.164 227.315C306.332 227.064 306.561 226.859 306.831 226.719C307.1 226.578 307.401 226.508 307.706 226.513C308.298 226.603 308.405 227.199 308.88 227.532Z" fill="#3F3D56"/>
<path d="M293.448 327.214H287.199C287.014 327.251 286.848 327.35 286.729 327.494C286.609 327.639 286.544 327.82 286.544 328.006C286.544 328.193 286.609 328.373 286.729 328.518C286.848 328.662 287.014 328.761 287.199 328.798H288.448V339.284H267.066C267.017 339.202 266.947 339.133 266.865 339.083C266.782 339.034 266.688 339.005 266.591 338.999H260.348C260.163 339.036 259.997 339.135 259.877 339.279C259.758 339.424 259.693 339.604 259.693 339.791C259.693 339.977 259.758 340.158 259.877 340.303C259.997 340.447 260.163 340.546 260.348 340.583H261.597V351.354H240.951C240.933 351.208 240.865 351.071 240.758 350.968C240.652 350.864 240.513 350.8 240.364 350.784H234.127C233.937 350.815 233.764 350.911 233.64 351.056C233.515 351.201 233.447 351.385 233.447 351.576C233.447 351.766 233.515 351.95 233.64 352.095C233.764 352.24 233.937 352.337 234.127 352.367H234.751V363.45H213.764C213.686 363.406 213.598 363.383 213.508 363.382H207.265C207.08 363.418 206.913 363.517 206.794 363.662C206.674 363.806 206.609 363.987 206.609 364.173C206.609 364.36 206.674 364.541 206.794 364.685C206.913 364.829 207.08 364.928 207.265 364.965H207.889V375.52H187.169C187.124 375.416 187.05 375.327 186.955 375.263C186.861 375.2 186.75 375.164 186.635 375.161H180.392C180.207 375.198 180.041 375.297 179.921 375.441C179.802 375.586 179.737 375.766 179.737 375.953C179.737 376.139 179.802 376.32 179.921 376.464C180.041 376.609 180.207 376.708 180.392 376.744H181.016V388.434H322.172V327.214H293.448Z" fill="#3F3D56"/>
<path opacity="0.1" d="M92.3251 124.714C91.7086 123.91 91.0094 123.17 90.2387 122.508C90.0295 122.328 89.8653 122.103 89.7591 121.849C89.6528 121.596 89.6075 121.321 89.6267 121.048C89.6458 120.774 89.7289 120.509 89.8693 120.272C90.0098 120.036 90.2038 119.834 90.4362 119.685C90.6923 119.521 90.9431 119.347 91.1939 119.157C94.1074 116.967 95.5802 114.027 94.4756 112.586C93.371 111.146 90.1107 111.758 87.1972 113.948C86.8604 114.196 86.5379 114.462 86.2313 114.745C86.0264 114.927 85.7816 115.06 85.5161 115.133C85.2506 115.207 84.9716 115.218 84.7009 115.167C84.4302 115.116 84.1751 115.004 83.9555 114.839C83.7359 114.674 83.5579 114.461 83.4352 114.217C83.0259 113.423 82.5455 112.667 81.9998 111.958C79.4065 108.581 75.9273 106.876 74.2251 108.153C72.5229 109.43 73.2379 113.209 75.8259 116.597C76.332 117.259 76.8943 117.877 77.5068 118.444C77.7092 118.639 77.8625 118.878 77.9544 119.143C78.0463 119.407 78.0741 119.689 78.0357 119.965C77.9973 120.242 77.8936 120.506 77.7332 120.736C77.5728 120.966 77.3599 121.155 77.1119 121.289C73.9103 123.099 72.1013 125.828 73.0085 127.395C73.9156 128.963 77.2347 128.767 80.4096 126.962C80.9016 126.68 81.3756 126.368 81.829 126.028C82.0426 125.868 82.2897 125.756 82.5523 125.702C82.815 125.648 83.0866 125.652 83.3473 125.715C83.608 125.777 83.8513 125.897 84.0595 126.064C84.2676 126.232 84.4354 126.443 84.5505 126.683C84.9834 127.618 85.5203 128.503 86.1513 129.322C88.7393 132.699 92.2238 134.404 93.926 133.127C95.6282 131.849 94.9132 128.097 92.3251 124.714Z" fill="#6C63FF"/>
<path opacity="0.1" d="M470.292 215.916C470.893 215.101 471.407 214.225 471.823 213.303C471.935 213.053 472.104 212.832 472.318 212.658C472.531 212.483 472.783 212.36 473.053 212.299C473.323 212.237 473.603 212.239 473.872 212.303C474.141 212.368 474.392 212.493 474.603 212.67C474.838 212.86 475.083 213.045 475.334 213.23C478.301 215.341 481.577 215.868 482.645 214.417C483.712 212.966 482.175 210.047 479.208 207.926C478.852 207.676 478.497 207.449 478.141 207.245C477.905 207.103 477.706 206.91 477.558 206.679C477.411 206.448 477.319 206.187 477.291 205.916C477.262 205.644 477.298 205.37 477.394 205.114C477.491 204.859 477.646 204.629 477.847 204.442C478.496 203.826 479.086 203.151 479.608 202.426C482.122 198.991 482.751 195.201 481.022 193.982C479.293 192.763 475.846 194.51 473.333 197.967C472.842 198.634 472.409 199.34 472.036 200.078C471.907 200.326 471.721 200.541 471.492 200.705C471.264 200.87 471 200.978 470.721 201.023C470.442 201.068 470.157 201.047 469.887 200.963C469.618 200.878 469.373 200.732 469.171 200.537C466.503 198.062 463.301 197.122 462.069 198.426C460.836 199.73 461.978 202.822 464.651 205.287C465.067 205.667 465.507 206.02 465.969 206.342C466.187 206.498 466.366 206.7 466.495 206.932C466.623 207.165 466.698 207.424 466.712 207.689C466.727 207.954 466.682 208.218 466.58 208.464C466.479 208.709 466.323 208.929 466.124 209.108C465.341 209.802 464.638 210.579 464.027 211.425C461.514 214.86 460.884 218.65 462.618 219.869C464.352 221.088 467.778 219.357 470.292 215.916Z" fill="#6C63FF"/>
<path d="M473.024 394.071C482.985 394.071 491.06 392.535 491.06 390.64C491.06 388.746 482.985 387.21 473.024 387.21C463.063 387.21 454.988 388.746 454.988 390.64C454.988 392.535 463.063 394.071 473.024 394.071Z" fill="#6C63FF"/>
<path d="M472.725 391.902C473.886 391.902 474.827 390.685 474.827 389.184C474.827 387.683 473.886 386.466 472.725 386.466C471.564 386.466 470.622 387.683 470.622 389.184C470.622 390.685 471.564 391.902 472.725 391.902Z" fill="#3F3D56"/>
<path d="M472.725 388.577C473.886 388.577 474.827 387.36 474.827 385.859C474.827 384.358 473.886 383.141 472.725 383.141C471.564 383.141 470.622 384.358 470.622 385.859C470.622 387.36 471.564 388.577 472.725 388.577Z" fill="#3F3D56"/>
<path d="M472.725 385.257C473.886 385.257 474.827 384.04 474.827 382.539C474.827 381.038 473.886 379.821 472.725 379.821C471.564 379.821 470.622 381.038 470.622 382.539C470.622 384.04 471.564 385.257 472.725 385.257Z" fill="#3F3D56"/>
<path d="M472.725 381.932C473.886 381.932 474.827 380.715 474.827 379.214C474.827 377.713 473.886 376.496 472.725 376.496C471.564 376.496 470.622 377.713 470.622 379.214C470.622 380.715 471.564 381.932 472.725 381.932Z" fill="#3F3D56"/>
<path d="M472.725 378.607C473.886 378.607 474.827 377.391 474.827 375.889C474.827 374.388 473.886 373.172 472.725 373.172C471.564 373.172 470.622 374.388 470.622 375.889C470.622 377.391 471.564 378.607 472.725 378.607Z" fill="#3F3D56"/>
<path d="M472.725 375.288C473.886 375.288 474.827 374.071 474.827 372.57C474.827 371.069 473.886 369.852 472.725 369.852C471.564 369.852 470.622 371.069 470.622 372.57C470.622 374.071 471.564 375.288 472.725 375.288Z" fill="#3F3D56"/>
<path d="M472.725 371.963C473.886 371.963 474.827 370.746 474.827 369.245C474.827 367.744 473.886 366.527 472.725 366.527C471.564 366.527 470.622 367.744 470.622 369.245C470.622 370.746 471.564 371.963 472.725 371.963Z" fill="#3F3D56"/>
<path d="M480.585 346.504C480.869 346.141 481.13 345.76 481.364 345.364L475.852 344.467L481.818 344.514C482.392 343.283 482.705 341.948 482.738 340.592C482.771 339.236 482.523 337.887 482.01 336.63L474.005 340.736L481.391 335.368C480.696 334.192 479.764 333.169 478.653 332.363C477.543 331.557 476.276 330.985 474.933 330.683C473.589 330.381 472.197 330.356 470.844 330.608C469.49 330.86 468.203 331.384 467.062 332.149C465.922 332.913 464.952 333.901 464.213 335.051C463.475 336.201 462.983 337.489 462.768 338.835C462.554 340.181 462.621 341.556 462.966 342.876C463.311 344.195 463.927 345.43 464.774 346.504C464.328 347.068 463.944 347.676 463.627 348.319L470.793 352.014L463.152 349.481C462.614 351.047 462.479 352.721 462.759 354.351C463.038 355.982 463.723 357.518 464.753 358.822C463.586 360.289 462.861 362.052 462.66 363.908C462.458 365.764 462.789 367.638 463.614 369.317C464.439 370.996 465.725 372.412 467.324 373.402C468.924 374.392 470.773 374.918 472.661 374.918C474.548 374.918 476.397 374.392 477.997 373.402C479.597 372.412 480.883 370.996 481.708 369.317C482.533 367.638 482.863 365.764 482.662 363.908C482.46 362.052 481.735 360.289 480.569 358.822C481.962 357.067 482.719 354.901 482.719 352.671C482.719 350.44 481.962 348.274 480.569 346.52L480.585 346.504Z" fill="#6C63FF"/>
<path opacity="0.1" d="M462.618 352.652C462.612 354.882 463.363 357.05 464.753 358.806C463.586 360.274 462.861 362.036 462.66 363.892C462.458 365.748 462.789 367.623 463.614 369.302C464.439 370.981 465.725 372.396 467.324 373.386C468.924 374.377 470.773 374.902 472.661 374.902C474.548 374.902 476.397 374.377 477.997 373.386C479.597 372.396 480.883 370.981 481.708 369.302C482.533 367.623 482.863 365.748 482.662 363.892C482.461 362.036 481.735 360.274 480.569 358.806C481.93 357.112 462.618 351.539 462.618 352.652Z" fill="black"/>
<path d="M144.32 393.01C148.829 393.01 152.484 392.315 152.484 391.458C152.484 390.601 148.829 389.907 144.32 389.907C139.811 389.907 136.156 390.601 136.156 391.458C136.156 392.315 139.811 393.01 144.32 393.01Z" fill="#6C63FF"/>
<path d="M144.187 392.028C144.711 392.028 145.137 391.478 145.137 390.799C145.137 390.12 144.711 389.569 144.187 389.569C143.662 389.569 143.237 390.12 143.237 390.799C143.237 391.478 143.662 392.028 144.187 392.028Z" fill="#3F3D56"/>
<path d="M144.187 390.524C144.711 390.524 145.137 389.974 145.137 389.294C145.137 388.615 144.711 388.065 144.187 388.065C143.662 388.065 143.237 388.615 143.237 389.294C143.237 389.974 143.662 390.524 144.187 390.524Z" fill="#3F3D56"/>
<path d="M144.187 389.02C144.711 389.02 145.137 388.47 145.137 387.79C145.137 387.111 144.711 386.561 144.187 386.561C143.662 386.561 143.237 387.111 143.237 387.79C143.237 388.47 143.662 389.02 144.187 389.02Z" fill="#3F3D56"/>
<path d="M144.187 387.516C144.711 387.516 145.137 386.965 145.137 386.286C145.137 385.607 144.711 385.057 144.187 385.057C143.662 385.057 143.237 385.607 143.237 386.286C143.237 386.965 143.662 387.516 144.187 387.516Z" fill="#3F3D56"/>
<path d="M144.187 386.012C144.711 386.012 145.137 385.461 145.137 384.782C145.137 384.103 144.711 383.552 144.187 383.552C143.662 383.552 143.237 384.103 143.237 384.782C143.237 385.461 143.662 386.012 144.187 386.012Z" fill="#3F3D56"/>
<path d="M144.187 384.508C144.711 384.508 145.137 383.957 145.137 383.278C145.137 382.599 144.711 382.048 144.187 382.048C143.662 382.048 143.237 382.599 143.237 383.278C143.237 383.957 143.662 384.508 144.187 384.508Z" fill="#3F3D56"/>
<path d="M144.187 383.004C144.711 383.004 145.137 382.453 145.137 381.774C145.137 381.095 144.711 380.544 144.187 380.544C143.662 380.544 143.237 381.095 143.237 381.774C143.237 382.453 143.662 383.004 144.187 383.004Z" fill="#3F3D56"/>
<path d="M147.741 371.477C147.873 371.311 147.992 371.134 148.098 370.95L145.601 370.543H148.301C148.575 369.952 148.717 369.31 148.717 368.659C148.718 368.082 148.606 367.51 148.386 366.976L144.763 368.833L148.103 366.406C147.789 365.873 147.367 365.41 146.865 365.045C146.362 364.681 145.789 364.422 145.181 364.286C144.573 364.149 143.943 364.137 143.33 364.251C142.717 364.366 142.135 364.603 141.619 364.949C141.103 365.295 140.664 365.742 140.33 366.263C139.996 366.783 139.773 367.366 139.676 367.975C139.579 368.585 139.61 369.207 139.766 369.804C139.923 370.401 140.201 370.96 140.585 371.446C140.378 371.699 140.199 371.973 140.051 372.264L143.29 373.932L139.832 372.781C139.591 373.49 139.532 374.247 139.661 374.984C139.79 375.721 140.102 376.415 140.569 377.003C140.039 377.668 139.709 378.466 139.616 379.308C139.524 380.149 139.673 380.999 140.046 381.761C140.42 382.522 141.002 383.164 141.727 383.614C142.453 384.063 143.291 384.301 144.147 384.301C145.002 384.301 145.841 384.063 146.566 383.614C147.291 383.164 147.874 382.522 148.247 381.761C148.621 380.999 148.77 380.149 148.677 379.308C148.585 378.466 148.255 377.668 147.725 377.003C148.357 376.21 148.701 375.229 148.701 374.219C148.701 373.209 148.357 372.228 147.725 371.435L147.741 371.477Z" fill="#6C63FF"/>
<path opacity="0.1" d="M139.608 374.259C139.608 375.27 139.952 376.251 140.585 377.045C140.055 377.71 139.725 378.508 139.632 379.35C139.54 380.191 139.689 381.041 140.062 381.803C140.436 382.564 141.018 383.207 141.743 383.656C142.468 384.105 143.307 384.344 144.163 384.344C145.018 384.344 145.857 384.105 146.582 383.656C147.307 383.207 147.89 382.564 148.263 381.803C148.636 381.041 148.785 380.191 148.693 379.35C148.601 378.508 148.271 377.71 147.741 377.045C148.354 376.296 139.608 373.752 139.608 374.259Z" fill="black"/>
</g>
<defs>
<linearGradient id="paint0_linear" x1="305.187" y1="386.693" x2="305.187" y2="60.0112" gradientUnits="userSpaceOnUse">
<stop stop-color="#808080" stop-opacity="0.25"/>
<stop offset="0.54" stop-color="#808080" stop-opacity="0.12"/>
<stop offset="1" stop-color="#808080" stop-opacity="0.1"/>
</linearGradient>
<linearGradient id="paint1_linear" x1="-2906" y1="1289.83" x2="-2886.79" y2="1289.83" gradientUnits="userSpaceOnUse">
<stop stop-color="#808080" stop-opacity="0.25"/>
<stop offset="0.54" stop-color="#808080" stop-opacity="0.12"/>
<stop offset="1" stop-color="#808080" stop-opacity="0.1"/>
</linearGradient>
<linearGradient id="paint2_linear" x1="36022.5" y1="76990" x2="36022.5" y2="53740.9" gradientUnits="userSpaceOnUse">
<stop stop-color="#808080" stop-opacity="0.25"/>
<stop offset="0.54" stop-color="#808080" stop-opacity="0.12"/>
<stop offset="1" stop-color="#808080" stop-opacity="0.1"/>
</linearGradient>
<clipPath id="clip0">
<rect width="623" height="399" fill="white"/>
</clipPath>
</defs>
</svg>
