<svg id="visual" viewBox="0 0 900 1000" width="900" height="1000" xmlns="http://www.w3.org/2000/svg" xmlns:xlink="http://www.w3.org/1999/xlink" version="1.1"><path d="M0 191L30 196C60 201 120 211 180 204.3C240 197.7 300 174.3 360 157.7C420 141 480 131 540 142.7C600 154.3 660 187.7 720 197.7C780 207.7 840 194.3 870 187.7L900 181L900 0L870 0C840 0 780 0 720 0C660 0 600 0 540 0C480 0 420 0 360 0C300 0 240 0 180 0C120 0 60 0 30 0L0 0Z" fill="#2684db"></path><path d="M0 401L30 434.3C60 467.7 120 534.3 180 551C240 567.7 300 534.3 360 524.3C420 514.3 480 527.7 540 511C600 494.3 660 447.7 720 457.7C780 467.7 840 534.3 870 567.7L900 601L900 179L870 185.7C840 192.3 780 205.7 720 195.7C660 185.7 600 152.3 540 140.7C480 129 420 139 360 155.7C300 172.3 240 195.7 180 202.3C120 209 60 199 30 194L0 189Z" fill="#006fe4"></path><path d="M0 791L30 792.7C60 794.3 120 797.7 180 791C240 784.3 300 767.7 360 779.3C420 791 480 831 540 854.3C600 877.7 660 884.3 720 872.7C780 861 840 831 870 816L900 801L900 599L870 565.7C840 532.3 780 465.7 720 455.7C660 445.7 600 492.3 540 509C480 525.7 420 512.3 360 522.3C300 532.3 240 565.7 180 549C120 532.3 60 465.7 30 432.3L0 399Z" fill="#3153e5"></path><path d="M0 1001L30 1001C60 1001 120 1001 180 1001C240 1001 300 1001 360 1001C420 1001 480 1001 540 1001C600 1001 660 1001 720 1001C780 1001 840 1001 870 1001L900 1001L900 799L870 814C840 829 780 859 720 870.7C660 882.3 600 875.7 540 852.3C480 829 420 789 360 777.3C300 765.7 240 782.3 180 789C120 795.7 60 792.3 30 790.7L0 789Z" fill="#6026db"></path></svg>