<svg id="visual" viewBox="0 0 540 2500" width="540" height="2500" xmlns="http://www.w3.org/2000/svg" xmlns:xlink="http://www.w3.org/1999/xlink" version="1.1"><path d="M0 26L45 71.8C90 117.7 180 209.3 270 251C360 292.7 450 284.3 495 280.2L540 276L540 0L495 0C450 0 360 0 270 0C180 0 90 0 45 0L0 0Z" fill="#2684db"></path><path d="M0 451L45 467.7C90 484.3 180 517.7 270 559.3C360 601 450 651 495 676L540 701L540 274L495 278.2C450 282.3 360 290.7 270 249C180 207.3 90 115.7 45 69.8L0 24Z" fill="#067ae0"></path><path d="M0 1251L45 1238.5C90 1226 180 1201 270 1196.8C360 1192.7 450 1209.3 495 1217.7L540 1226L540 699L495 674C450 649 360 599 270 557.3C180 515.7 90 482.3 45 465.7L0 449Z" fill="#006fe4"></path><path d="M0 2001L45 1984.3C90 1967.7 180 1934.3 270 1863.5C360 1792.7 450 1684.3 495 1630.2L540 1576L540 1224L495 1215.7C450 1207.3 360 1190.7 270 1194.8C180 1199 90 1224 45 1236.5L0 1249Z" fill="#1562e6"></path><path d="M0 2051L45 2038.5C90 2026 180 2001 270 1967.7C360 1934.3 450 1892.7 495 1871.8L540 1851L540 1574L495 1628.2C450 1682.3 360 1790.7 270 1861.5C180 1932.3 90 1965.7 45 1982.3L0 1999Z" fill="#3153e5"></path><path d="M0 2476L45 2459.3C90 2442.7 180 2409.3 270 2380.2C360 2351 450 2326 495 2313.5L540 2301L540 1849L495 1869.8C450 1890.7 360 1932.3 270 1965.7C180 1999 90 2024 45 2036.5L0 2049Z" fill="#4a41e2"></path><path d="M0 2501L45 2501C90 2501 180 2501 270 2501C360 2501 450 2501 495 2501L540 2501L540 2299L495 2311.5C450 2324 360 2349 270 2378.2C180 2407.3 90 2440.7 45 2457.3L0 2474Z" fill="#6026db"></path></svg>