<svg id="visual" viewBox="0 0 900 600" width="900" height="600" xmlns="http://www.w3.org/2000/svg" xmlns:xlink="http://www.w3.org/1999/xlink" version="1.1"><path d="M0 115L150 85L300 115L450 139L600 145L750 157L900 121L900 0L750 0L600 0L450 0L300 0L150 0L0 0Z" fill="#00cc8e"></path><path d="M0 175L150 169L300 211L450 211L600 229L750 199L900 169L900 119L750 155L600 143L450 137L300 113L150 83L0 113Z" fill="#00b98a"></path><path d="M0 295L150 301L300 379L450 403L600 403L750 439L900 379L900 167L750 197L600 227L450 209L300 209L150 167L0 173Z" fill="#00a784"></path><path d="M0 553L150 505L300 487L450 493L600 487L750 529L900 541L900 377L750 437L600 401L450 401L300 377L150 299L0 293Z" fill="#00957c"></path><path d="M0 601L150 601L300 601L450 601L600 601L750 601L900 601L900 539L750 527L600 485L450 491L300 485L150 503L0 551Z" fill="#038373"></path></svg>