<svg width="581" height="322" viewBox="0 0 581 322" fill="none" xmlns="http://www.w3.org/2000/svg">
<g clip-path="url(#clip0)">
<path d="M253.592 3.75914L206.816 180.683L500.049 269.375L546.826 92.4512L253.592 3.75914Z" fill="#3F3D56"/>
<path d="M258.658 13.7565C259.999 13.7565 261.086 12.5936 261.086 11.159C261.086 9.72437 259.999 8.5614 258.658 8.5614C257.316 8.5614 256.229 9.72437 256.229 11.159C256.229 12.5936 257.316 13.7565 258.658 13.7565Z" fill="#6C63FF"/>
<path d="M266.136 16.0184C267.477 16.0184 268.564 14.8554 268.564 13.4208C268.564 11.9862 267.477 10.8232 266.136 10.8232C264.795 10.8232 263.707 11.9862 263.707 13.4208C263.707 14.8554 264.795 16.0184 266.136 16.0184Z" fill="#6C63FF"/>
<path d="M273.614 18.2803C274.955 18.2803 276.043 17.1174 276.043 15.6828C276.043 14.2482 274.955 13.0852 273.614 13.0852C272.273 13.0852 271.185 14.2482 271.185 15.6828C271.185 17.1174 272.273 18.2803 273.614 18.2803Z" fill="#6C63FF"/>
<path d="M409.215 116.024C405.289 115.23 401.251 115.332 397.365 116.323C398.497 112.167 398.782 107.8 398.203 103.516C394.201 105.066 390.58 107.565 387.611 110.827C386.679 106.386 384.818 102.228 382.167 98.6663C379.576 101.991 377.681 105.871 376.61 110.045C373.785 107.024 370.395 104.676 366.662 103.153C366.662 103.153 364.894 112.774 369.151 120.668C372.941 127.695 380.223 130.983 381.779 131.622L381.816 131.668L381.835 131.645C381.993 131.709 382.082 131.741 382.082 131.741C382.082 131.741 382.115 131.557 382.161 131.227C382.189 131.19 382.217 131.152 382.248 131.111C382.254 131.163 382.26 131.211 382.266 131.258C382.144 131.565 382.082 131.741 382.082 131.741C382.082 131.741 382.173 131.763 382.339 131.797L382.344 131.828L382.398 131.809C384.037 132.137 391.85 133.414 398.518 129.551C406.011 125.211 409.215 116.024 409.215 116.024Z" fill="#6C63FF"/>
<path d="M394.682 91.448C398.17 91.448 400.997 88.4243 400.997 84.6943C400.997 80.9644 398.17 77.9407 394.682 77.9407C391.195 77.9407 388.368 80.9644 388.368 84.6943C388.368 88.4243 391.195 91.448 394.682 91.448Z" fill="#6C63FF"/>
<path d="M473.966 172.381L284.207 114.986L283.04 119.402L472.798 176.797L473.966 172.381Z" fill="#6C63FF"/>
<path d="M328.869 152.25L296.152 142.354L286.9 177.348L319.617 187.243L328.869 152.25Z" fill="#6C63FF"/>
<path d="M389.629 170.627L356.912 160.732L347.66 195.725L380.377 205.621L389.629 170.627Z" fill="#6C63FF"/>
<path d="M450.39 189.005L417.673 179.109L408.421 214.103L441.138 223.999L450.39 189.005Z" fill="#6C63FF"/>
<path d="M313.561 192.97L289.256 185.619L288.463 188.618L312.768 195.969L313.561 192.97Z" fill="#6C63FF"/>
<path d="M374.321 211.347L350.017 203.996L349.224 206.996L373.528 214.347L374.321 211.347Z" fill="#6C63FF"/>
<path d="M435.081 229.725L410.777 222.374L409.984 225.373L434.288 232.724L435.081 229.725Z" fill="#6C63FF"/>
<path d="M165.75 249.152C255.521 249.152 328.295 246.274 328.295 242.724C328.295 239.174 255.521 236.297 165.75 236.297C75.9791 236.297 3.2052 239.174 3.2052 242.724C3.2052 246.274 75.9791 249.152 165.75 249.152Z" fill="#D0CDE1"/>
<path d="M454.512 322C524.37 322 581 319.122 581 315.572C581 312.022 524.37 309.145 454.512 309.145C384.655 309.145 328.025 312.022 328.025 315.572C328.025 319.122 384.655 322 454.512 322Z" fill="#D0CDE1"/>
<path d="M392.475 265.681H428.967V282.003H407.736V298.326H428.969V314.647H392.475V265.681ZM436.266 265.681H472.758V279.874H451.527V282.713H472.758V315.358H436.267V300.453H457.498V297.614H436.265V265.681H436.266ZM480.057 265.681H516.55V279.874H495.318V282.713H516.55V315.358H480.057V300.453H501.289V297.614H480.058V265.681H480.057Z" fill="#3F3D56"/>
<path d="M73.5402 190.996H88.5941V206.904H102.365V190.996H117.42V239.169H102.366V223.038H88.595V239.169H73.5411V190.996H73.5402ZM137.215 206.972H123.965V190.996H165.531V206.972H152.272V239.169H137.218V206.972H137.215ZM172.128 190.996H187.825L197.48 207.923L207.127 190.996H222.83V239.169H207.837V215.292L197.48 232.42H197.22L186.857 215.292V239.169H172.128V190.996ZM230.321 190.996H245.38V223.247H266.55V239.169H230.32V190.996H230.321Z" fill="#3F3D56"/>
<path d="M46.9515 224.109L45.7164 239.087L55.6007 238.205V225.431L46.9515 224.109Z" fill="#FFB8B8"/>
<path d="M37.8907 224.109L39.1264 239.087L29.2421 238.205V225.431L37.8907 224.109Z" fill="#FFB8B8"/>
<path d="M63.8378 109.135C63.8378 109.135 67.1327 130.279 67.1327 133.363C67.1327 136.446 65.8971 156.27 63.8378 160.234C61.7785 164.199 61.3667 165.961 62.1904 167.723C63.0141 169.485 62.6023 169.045 62.1904 170.366C61.7785 171.688 60.9548 171.247 62.1904 173.009C62.6949 173.785 62.9654 174.707 62.9654 175.652C62.9654 176.597 62.6949 177.52 62.1904 178.295C61.3667 179.617 63.8378 215.299 60.543 217.942C57.2481 220.585 56.4244 229.395 56.4244 229.395L45.7161 228.074V218.382C45.7161 218.382 43.245 211.334 44.8924 206.929C46.5398 202.524 47.3635 179.176 47.3635 179.176C47.3635 179.176 46.9517 176.974 47.3635 175.652C47.7754 174.331 47.3635 173.45 46.5398 173.009C45.7161 172.569 45.3043 170.807 45.3043 170.807L44.0687 138.649L39.1264 170.366C39.1264 170.366 44.0687 213.537 39.1264 219.263V229.395H28.4181L30.0655 218.382C30.0655 218.382 26.7707 208.25 28.4181 206.048C30.0655 203.845 23.4758 168.604 24.2995 167.283C25.1233 165.961 24.7114 165.52 24.2995 164.639C23.8877 163.758 22.6521 162.877 23.064 161.996C23.4758 161.115 23.064 159.353 23.064 159.353C23.064 159.353 15.2387 117.945 18.9454 113.98C22.6521 110.016 63.8378 109.135 63.8378 109.135Z" fill="#2F2E41"/>
<path d="M48.1873 233.36C48.1873 233.36 49.011 229.135 55.6007 230.587C55.6007 230.587 57.2482 234.241 57.2482 236.003C57.2482 237.765 58.8956 249.659 58.8956 249.659C58.8956 249.659 65.4853 261.553 57.2482 261.553C49.011 261.553 46.128 258.469 45.7162 255.386C45.3043 252.302 46.128 251.421 44.4806 250.099C42.8332 248.778 42.0094 248.778 42.4213 247.016C42.8332 245.254 43.6569 236.443 43.6569 236.443C43.6569 236.443 44.0687 229.836 46.3339 231.598L48.5992 233.36" fill="#2F2E41"/>
<path d="M36.6553 233.36C36.6553 233.36 35.8316 229.135 29.2418 230.587C29.2418 230.587 27.5944 234.241 27.5944 236.003C27.5944 237.765 25.947 249.659 25.947 249.659C25.947 249.659 19.3573 261.553 27.5944 261.553C35.8316 261.553 38.7146 258.469 39.1264 255.386C39.5383 252.302 38.7146 251.421 40.362 250.099C42.0094 248.778 42.8331 248.778 42.4213 247.016C42.0094 245.254 41.1857 236.443 41.1857 236.443C41.1857 236.443 40.7738 229.836 38.5086 231.598L36.2434 233.36" fill="#2F2E41"/>
<path d="M48.5991 28.0797C54.7406 28.0797 59.7193 22.7546 59.7193 16.1858C59.7193 9.61696 54.7406 4.29187 48.5991 4.29187C42.4577 4.29187 37.479 9.61696 37.479 16.1858C37.479 22.7546 42.4577 28.0797 48.5991 28.0797Z" fill="#FFB8B8"/>
<path d="M39.5383 17.9479C39.5383 17.9479 35.0078 36.89 34.1841 37.3306C33.3604 37.7711 53.1295 39.5331 53.1295 39.5331C53.1295 39.5331 48.1872 23.2341 53.1295 20.591L39.5383 17.9479Z" fill="#FFB8B8"/>
<path d="M36.645 29.4911L36.6444 29.4886L23.064 39.5331L25.5351 118.385C25.5351 118.385 43.6568 116.183 47.7754 116.623C51.894 117.064 65.0734 112.659 65.0734 112.659L59.3006 38.5645C59.1878 37.1167 58.5945 35.7598 57.6279 34.7391C56.6613 33.7184 55.3853 33.1011 54.0303 32.9989L51.5568 32.8124C51.5568 32.8124 49.0858 39.356 41.6514 35.9801C40.3979 35.3969 39.291 34.5051 38.421 33.3774C37.551 32.2498 36.9424 30.9181 36.645 29.4911Z" fill="#D0CDE1"/>
<path d="M36.9734 28.7719L20.181 37.3305L16.8861 87.9898C16.8861 87.9898 10.2964 118.385 15.6505 127.196C21.0047 136.006 30.0655 136.887 30.0655 136.887C30.0655 136.887 42.0094 86.2277 38.7145 69.0476C35.4197 51.8675 36.9734 28.7719 36.9734 28.7719Z" fill="#575A89"/>
<path d="M5.35417 105.17V111.778C5.35417 111.778 2.88303 126.315 10.7083 125.874C18.5336 125.434 14.8269 110.016 14.8269 110.016L12.3557 105.17H5.35417Z" fill="#FFB8B8"/>
<path d="M77.841 118.385L77.0173 125.874C77.0173 125.874 81.1359 140.852 73.3106 141.292C65.4853 141.733 71.1654 125.966 71.1654 125.966L73.7224 117.504L77.841 118.385Z" fill="#FFB8B8"/>
<path d="M51.309 31.2728C58.8134 33.2499 65.7675 37.1164 71.5919 42.5503L71.6631 42.6167L65.8971 75.2149L65.0734 87.1088C65.0734 87.1088 80.3121 145.257 62.6022 136.887C62.6022 136.887 47.3635 86.2277 49.4228 62.8804C51.4821 39.5331 51.309 31.2728 51.309 31.2728Z" fill="#575A89"/>
<path d="M66.309 42.1762C66.7208 41.7357 71.6631 42.7884 71.6631 42.7884C71.6631 42.7884 80.7239 76.9769 80.7239 82.7036C80.7239 88.4303 81.9595 121.028 81.9595 121.028L71.0878 122.201L62.288 76.9085L66.309 42.1762Z" fill="#575A89"/>
<path d="M23.064 37.3304H20.181C20.181 37.3304 11.9439 40.8546 11.532 44.8192C11.1201 48.7839 0 88.8708 0 88.8708L2.883 109.134L13.5913 107.372L15.6506 84.9061L26.3589 60.2373L23.064 37.3304Z" fill="#575A89"/>
<path d="M46.4388 19.5053L46.8651 16.3263C46.9645 15.5854 47.3699 14.6112 48.0439 14.8127C48.6171 14.9841 49.8661 15.5089 50.0752 15.3505C50.8583 14.7572 52.0433 15.7946 52.8668 15.2676C53.2118 15.0467 53.4368 14.5736 53.8378 14.542C54.1068 14.5604 54.3603 14.6833 54.5507 14.8875C55.0852 15.3847 55.7151 15.7506 56.396 15.9597C56.7376 16.0592 57.0978 16.0591 57.4394 15.9595C57.781 15.8599 58.0915 15.6644 58.3386 15.3933C58.4259 15.2489 58.5436 15.1283 58.6822 15.0411C58.8448 14.9909 59.0184 14.9995 59.1761 15.0654L61.2801 15.6781C61.5896 14.4781 61.6531 13.2207 61.4664 11.992C61.2798 10.7633 60.8472 9.59216 60.1985 8.55868C59.3449 7.31948 58.3102 6.23558 57.134 5.34869C55.8311 4.28847 54.4864 3.29124 53.1 2.35702C51.6302 1.24474 49.9619 0.4684 48.1991 0.0764643C46.4248 -0.211713 44.4381 0.303864 43.3221 1.80706C42.7971 1.4007 42.4026 0.830589 42.1925 0.174918C42.0674 0.29669 41.9687 0.446364 41.9036 0.613362C41.8385 0.780361 41.8084 0.960614 41.8155 1.14141C41.8226 1.3222 41.8667 1.49911 41.9448 1.65967C42.0228 1.82022 42.1328 1.96051 42.2671 2.0706L40.4877 0.855236C39.9874 1.417 40.9648 2.43566 40.5386 3.06339C40.4097 3.21864 40.2443 3.33416 40.0595 3.39793C39.0933 3.80071 38.2078 4.39685 37.4504 5.15439C36.4915 6.32292 35.7893 7.70631 35.3956 9.203C34.3352 12.4566 33.5646 16.1879 35.0711 19.2336C35.2419 19.5788 37.4964 25.2778 37.7967 25.5C38.812 26.2513 38.1511 24.4332 38.8786 25.5C39.4491 26.3366 39.3423 23.1348 40.1902 23.8376C40.5226 24.092 40.9169 24.2378 41.3252 24.2575C41.7335 24.2771 42.1384 24.1697 42.4909 23.9482C42.8424 23.6875 42.7291 22.2395 42.5394 20.9099C42.5032 20.6566 42.5255 20.3977 42.6046 20.1558C42.6836 19.9139 42.8169 19.6965 42.9928 19.5225C43.1687 19.3485 43.3818 19.2234 43.6134 19.158C43.845 19.0926 44.0881 19.089 44.3213 19.1475C45.3773 19.4132 46.4207 19.6402 46.4388 19.5053Z" fill="#2F2E41"/>
<path opacity="0.2" d="M67.3389 82.0426L71.8689 122.13H68.9861L67.3389 82.0426Z" fill="black"/>
<path opacity="0.2" d="M19.5632 66.6246L17.2727 82.0427L21.6225 66.6246H20.3868H19.5632Z" fill="black"/>
</g>
<defs>
<clipPath id="clip0">
<rect width="581" height="322" fill="white"/>
</clipPath>
</defs>
</svg>
